<?xml version="1.0" encoding="utf-8"?>
<!-- Generator: Adobe Illustrator 20.1.0, SVG Export Plug-In . SVG Version: 6.00 Build 0)  -->
<svg version="1.1" xmlns="http://www.w3.org/2000/svg" xmlns:xlink="http://www.w3.org/1999/xlink" x="0px" y="0px"
	 viewBox="0 0 1900 1095.4" style="enable-background:new 0 0 1900 1095.4;" xml:space="preserve">
<style type="text/css">
	.st0{fill:url(#SVGID_1_);}
	.st1{fill:url(#SVGID_2_);}
	.st2{fill:#FFFFFF;}
	.st3{font-family:'Roboto-Bold';}
	.st4{font-size:95.0683px;}
	.st5{fill:#2FBCCB;}
	.st6{fill:#95C856;}
	.st7{font-family:'HelveticaNeue-CondensedBold';}
	.st8{font-size:37.8279px;}
	.st9{fill:none;stroke:#FFFFFF;stroke-width:8.7073;stroke-miterlimit:10;}
	.st10{fill:none;stroke:#FFFFFF;stroke-width:5.2999;stroke-miterlimit:10;}
	.st11{enable-background:new    ;}
</style>
<g id="Calque_1">
	
		<radialGradient id="SVGID_1_" cx="2793.4275" cy="1565.7855" r="265.814" gradientTransform="matrix(1 0 0 -2.1211 0 3649.6736)" gradientUnits="userSpaceOnUse">
		<stop  offset="0" style="stop-color:#3F3F3F"/>
		<stop  offset="0.3632" style="stop-color:#3A3A3A"/>
		<stop  offset="0.5659" style="stop-color:#353535"/>
		<stop  offset="1" style="stop-color:#323232"/>
	</radialGradient>
	<rect x="2461.5" y="-45.9" class="st0" width="663.8" height="748.8"/>
	
		<radialGradient id="SVGID_2_" cx="950" cy="528.6402" r="796.1824" gradientTransform="matrix(1 0 0 1.036 0 0)" gradientUnits="userSpaceOnUse">
		<stop  offset="0" style="stop-color:#3F3F3F"/>
		<stop  offset="0.3632" style="stop-color:#3A3A3A"/>
		<stop  offset="0.5659" style="stop-color:#353535"/>
		<stop  offset="1" style="stop-color:#323232"/>
	</radialGradient>
	<rect x="-44.2" class="st1" width="1988.3" height="1095.4"/>
	<text transform="matrix(1 0 0 1 670.3892 518.4255)"><tspan x="0" y="0" class="st2 st3 st4">Site en cours</tspan><tspan x="-54.4" y="114.1" class="st2 st3 st4">de construction</tspan></text>
	<text transform="matrix(1 0 0 1 2621.1345 281.8518)"><tspan x="0" y="0" class="st2 st3" style="font-size:57.8656px;">Site en cours</tspan><tspan x="-33.1" y="69.4" class="st2 st3" style="font-size:57.8656px;">de construction</tspan></text>
	<g>
		<g>
			<g>
				<path class="st2" d="M1118.9,1062.5c-3.7,0-6.2-2.4-6.2-6.1V1045c0-4.6,2.2-10.5,13-13.1c1.5-0.3,3-0.6,4.7-0.8
					c1.6-0.2,3.3-0.3,5.2-0.3h18c1.8,0,3.8-0.2,6.1-0.7c1.2-0.3,1.7-0.6,2-0.7v-2.9c-0.5-0.3-1.9-0.8-5.2-1.2
					c-1.3-0.1-4.1-0.3-10.3-0.3c-3.2,0-4.7-1.7-5.3-2.7c-0.6-1.1-0.9-2.4-0.9-4.3c0-3.7,2.4-6.1,6.1-6.1c4.1,0,7.5,0,10,0.1
					c2.6,0.1,4.4,0.2,5.6,0.4c3.7,0.6,6.9,1.9,9.4,3.8c4.3,3.3,5.2,7.1,5.2,9.7c0,4.7-0.6,8-2,10.2c-3.2,5.2-9.9,7.8-20.5,7.8h-18.5
					c-5.6,0-7.5,0.8-8,1.1v4.2h42.7c3.8,0,6.3,2.6,6.3,6.6s-2.5,6.6-6.3,6.6L1118.9,1062.5L1118.9,1062.5z"/>
				<path class="st2" d="M1146.2,1015.3c4.1,0,7.4,0,9.8,0.1c2.4,0.1,4.2,0.2,5.2,0.4c3.2,0.5,5.9,1.6,8,3.2c2.6,2,3.9,4.3,3.9,7.1
					c0,4-0.5,6.8-1.5,8.5c-2.5,4.1-8.4,6.2-17.7,6.2h-18.5c-7.5,0-11.3,1.4-11.3,4.2v7.7h46c2,0,3,1.1,3,3.3c0,2.2-1,3.3-3,3.3
					h-51.2c-1.9,0-2.9-1-2.9-2.9V1045c0-4.9,3.5-8.2,10.4-9.9c1.3-0.3,2.8-0.5,4.3-0.7c1.5-0.2,3.1-0.2,4.8-0.2h18
					c2,0,4.3-0.2,6.8-0.7c3.1-0.7,4.6-1.9,4.6-3.6v-3.8c0-2-2.7-3.3-8.2-3.9c-2-0.2-5.5-0.3-10.7-0.3c-1.2,0-2-0.4-2.5-1.1
					c-0.3-0.5-0.4-1.4-0.4-2.6C1143.3,1016.2,1144.2,1015.3,1146.2,1015.3 M1146.2,1008.7c-5.6,0-9.4,3.9-9.4,9.4
					c0,2.6,0.4,4.4,1.3,5.9l0.1,0.1c0.9,1.6,2.3,2.7,4,3.4h-6.5c-2,0-3.8,0.1-5.5,0.3c-1.8,0.2-3.5,0.5-5.1,0.8
					c-13.5,3.2-15.5,11.6-15.5,16.3v11.5c0,5.6,3.9,9.4,9.4,9.4h51.2c5.6,0,9.5-4.1,9.5-9.9c0-5.8-3.9-9.9-9.5-9.9h-4.7
					c5.5-1.4,9.4-4.1,11.8-8.1c1.7-2.8,2.5-6.6,2.5-11.9c0-3.4-1.1-8.3-6.5-12.3c-3-2.2-6.6-3.7-10.8-4.4c-1.4-0.2-3.3-0.4-6-0.5
					C1153.8,1008.8,1150.3,1008.7,1146.2,1008.7L1146.2,1008.7z M1159.9,1026.7L1159.9,1026.7L1159.9,1026.7L1159.9,1026.7z"/>
			</g>
			<g>
				<path class="st2" d="M1081.6,1043.9c-10,0-19.6-1.9-28.6-5.7c-8.9-3.7-16.8-9-23.5-15.7c-1.7-1.7-3.3-3.4-4.8-5.3H726.8
					c-1.8,0-3.3-1.5-3.3-3.3v-68.7c0-1.8,1.5-3.3,3.3-3.3h287.4c3.8-8.3,8.9-15.7,15.4-22.1c6.6-6.5,14.5-11.8,23.4-15.5
					c8.9-3.8,18.6-5.7,28.6-5.7c10.2,0,19.9,1.9,28.7,5.7c8.8,3.7,16.7,9,23.4,15.5c6.8,6.6,12.1,14.3,15.9,23
					c3.8,8.7,5.8,18.3,5.8,28.3c0,9.9-1.9,19.3-5.8,28.2c-3.8,8.8-9.2,16.6-15.9,23.3c-6.8,6.7-14.6,11.9-23.4,15.7
					C1101.4,1042,1091.8,1043.9,1081.6,1043.9z"/>
				<path class="st2" d="M1081.6,901.9c9.8,0,19,1.8,27.4,5.4c8.5,3.6,15.9,8.5,22.4,14.8s11.6,13.6,15.2,21.9
					c3.7,8.3,5.5,17.3,5.5,27c0,9.5-1.8,18.4-5.5,26.9c-3.7,8.4-8.7,15.9-15.2,22.2c-6.5,6.4-14,11.4-22.4,15
					c-8.5,3.6-17.6,5.4-27.4,5.4c-9.6,0-18.7-1.8-27.3-5.4c-8.6-3.6-16.1-8.6-22.4-15c-2-2-3.8-4.1-5.6-6.3H726.8v-68.7h289.5
					c0.2-0.4,0.3-0.7,0.4-1.1c3.7-8.3,8.7-15.6,15.1-21.9c6.4-6.3,13.8-11.2,22.4-14.8C1062.8,903.7,1071.9,901.9,1081.6,901.9
					 M1081.6,895.4c-10.4,0-20.5,2-29.8,5.9c-9.3,3.9-17.6,9.4-24.5,16.2c-6.2,6.1-11.3,13.2-15.1,21.1H726.8
					c-3.6,0-6.6,2.9-6.6,6.6v68.7c0,3.6,2.9,6.6,6.6,6.6h296.4c1.3,1.5,2.7,3,4,4.4c6.9,7,15.2,12.5,24.5,16.4s19.4,5.9,29.8,5.9
					c10.7,0,20.8-2,30-5.9c9.2-3.9,17.4-9.4,24.5-16.3c7.1-6.9,12.7-15.1,16.6-24.3c4-9.2,6-19.2,6-29.5c0-10.5-2-20.5-6-29.7
					c-4-9.1-9.6-17.1-16.7-24c-7-6.8-15.2-12.3-24.4-16.2C1102.3,897.3,1092.2,895.4,1081.6,895.4L1081.6,895.4z"/>
			</g>
		</g>
		<g>
			<rect x="727" y="945" class="st5" width="307.5" height="68.7"/>
			<path class="st6" d="M1173.3,1025.9c0,4-0.5,6.8-1.5,8.5c-2.5,4.1-8.4,6.2-17.7,6.2h-18.5c-7.5,0-11.3,1.4-11.3,4.1v7.7h46
				c2,0,3,1.1,3,3.3c0,2.2-1,3.3-3,3.3h-51.2c-1.9,0-2.9-1-2.9-2.9v-11.4c0-4.9,3.5-8.2,10.4-9.9c1.3-0.3,2.8-0.5,4.3-0.7
				c1.5-0.2,3.1-0.2,4.8-0.2h18c2,0,4.3-0.2,6.8-0.7c3.1-0.7,4.6-1.9,4.6-3.6v-3.8c0-2-2.7-3.3-8.2-3.9c-2-0.2-5.5-0.3-10.7-0.3
				c-1.2,0-2-0.4-2.5-1.1c-0.3-0.5-0.4-1.4-0.4-2.6c0-1.9,0.9-2.8,2.9-2.8c4.1,0,7.4,0,9.9,0.1c2.4,0.1,4.2,0.2,5.2,0.4
				c3.2,0.5,5.9,1.6,8,3.2C1172.1,1020.8,1173.3,1023.2,1173.3,1025.9z"/>
			<g>
				<path class="st6" d="M1011.5,970.9c0-9.7,1.8-18.7,5.5-27s8.7-15.6,15.1-21.9c6.4-6.3,13.8-11.2,22.4-14.8
					c8.6-3.6,17.7-5.4,27.3-5.4c9.8,0,19,1.8,27.4,5.4c8.5,3.6,15.9,8.5,22.4,14.8s11.6,13.6,15.2,21.9c3.7,8.3,5.5,17.3,5.5,27
					c0,9.5-1.8,18.4-5.5,26.9c-3.7,8.4-8.7,15.9-15.2,22.2c-6.5,6.4-14,11.4-22.4,15c-8.5,3.6-17.6,5.4-27.4,5.4
					c-9.6,0-18.7-1.8-27.3-5.4c-8.6-3.6-16.1-8.6-22.4-15c-6.4-6.4-11.4-13.8-15.1-22.2S1011.5,980.4,1011.5,970.9z M1039.2,970.9
					c0,5.8,1.1,11.2,3.3,16.4c2.2,5.1,5.2,9.6,9.1,13.4c3.9,3.8,8.4,6.8,13.6,9c5.2,2.2,10.8,3.2,16.6,3.2s11.4-1.1,16.6-3.2
					c5.2-2.2,9.8-5.2,13.6-9c3.9-3.8,6.9-8.3,9.1-13.4c2.2-5.1,3.3-10.6,3.3-16.4c0-5.8-1.1-11.2-3.3-16.2c-2.2-5-5.2-9.5-9.1-13.3
					c-3.9-3.8-8.4-6.8-13.6-9c-5.2-2.2-10.8-3.2-16.6-3.2c-5.9,0-11.4,1.1-16.6,3.2c-5.2,2.2-9.8,5.1-13.6,9
					c-3.9,3.8-6.9,8.2-9.1,13.3C1040.2,959.8,1039.2,965.2,1039.2,970.9z"/>
			</g>
			<polygon class="st2" points="779.7,945 779.7,963.9 756.2,963.9 756.2,945 748,945 748,999.1 756.2,999.1 756.2,972 779.7,972 
				779.7,999.1 787.8,999.1 787.8,945 			"/>
			<g>
				<path class="st2" d="M813,960.2c2.8,0,5.3,0.5,7.7,1.5c2.4,1,4.4,2.4,6.2,4.1c1.8,1.8,3.2,3.8,4.2,6.1s1.5,4.9,1.5,7.6v19.4
					h-19.6c-2.7,0-5.2-0.5-7.6-1.5s-4.5-2.4-6.3-4.2s-3.2-3.9-4.2-6.2c-1-2.4-1.5-4.9-1.5-7.5c0-2.7,0.5-5.2,1.5-7.6
					c1-2.3,2.4-4.4,4.2-6.1c1.8-1.8,3.9-3.1,6.3-4.1C807.7,960.7,810.2,960.2,813,960.2z M824.8,991.3v-11.7c0-1.6-0.3-3.1-0.9-4.5
					c-0.6-1.4-1.5-2.6-2.5-3.7c-1.1-1.1-2.3-1.9-3.8-2.5c-1.4-0.6-3-0.9-4.6-0.9c-1.6,0-3.2,0.3-4.6,0.9c-1.5,0.6-2.7,1.4-3.8,2.5
					s-1.9,2.3-2.6,3.7c-0.6,1.4-0.9,2.9-0.9,4.5s0.3,3.1,0.9,4.6c0.6,1.4,1.5,2.7,2.6,3.8s2.4,1.9,3.8,2.5c1.5,0.6,3,0.9,4.6,0.9
					L824.8,991.3L824.8,991.3z"/>
				<path class="st2" d="M856.3,960.2c2.7,0,5.3,0.5,7.7,1.5c2.4,1,4.5,2.4,6.2,4.1c1.8,1.8,3.2,3.8,4.2,6.1s1.5,4.9,1.5,7.6V995
					c0,2.7-0.5,5.2-1.5,7.5s-2.4,4.4-4.2,6.2s-3.9,3.2-6.2,4.2c-2.4,1-4.9,1.5-7.7,1.5h-3.9v-7.7h3.9c2.6,0,5-0.7,7-2.2
					s3.4-3.4,4.3-5.7h-11.2c-2.7,0-5.2-0.5-7.6-1.5c-2.4-1-4.5-2.4-6.3-4.2s-3.2-3.9-4.3-6.2c-1-2.4-1.5-4.9-1.5-7.5
					c0-2.7,0.5-5.2,1.5-7.6c1-2.3,2.4-4.4,4.3-6.1c1.8-1.8,3.9-3.1,6.3-4.1C851,960.7,853.7,960.2,856.3,960.2z M844.3,979.5
					c0,1.6,0.3,3.1,0.9,4.6c0.6,1.4,1.5,2.7,2.5,3.8c1.1,1.1,2.4,1.9,3.8,2.5c1.5,0.6,3,0.9,4.7,0.9h11.9v-11.7
					c0-1.6-0.3-3.1-0.9-4.5s-1.5-2.6-2.5-3.7c-1.1-1.1-2.4-1.9-3.8-2.5c-1.5-0.6-3-0.9-4.6-0.9c-1.6,0-3.2,0.3-4.7,0.9
					c-1.5,0.6-2.7,1.4-3.8,2.5c-1.1,1.1-1.9,2.3-2.5,3.7C844.7,976.4,844.3,977.9,844.3,979.5z"/>
				<path class="st2" d="M920,960.2v19.3c0,2.6-0.5,5.2-1.5,7.5c-1,2.4-2.4,4.4-4.3,6.2c-1.8,1.8-3.9,3.2-6.3,4.2s-4.9,1.5-7.7,1.5
					c-2.7,0-5.2-0.5-7.6-1.5c-2.4-1-4.5-2.4-6.3-4.2c-1.8-1.8-3.2-3.9-4.2-6.2c-1-2.4-1.5-4.9-1.5-7.5v-19.3h7.8v19.3
					c0,1.6,0.3,3.1,0.9,4.6c0.6,1.4,1.5,2.7,2.5,3.8c1.1,1.1,2.3,1.9,3.8,2.5c1.4,0.6,3,0.9,4.6,0.9s3.2-0.3,4.7-0.9
					c1.5-0.6,2.7-1.4,3.8-2.5s1.9-2.3,2.5-3.8c0.6-1.4,0.9-3,0.9-4.6v-19.3H920z"/>
				<path class="st2" d="M955,985.3l5.5,5.4l-2.7,2.7c-1.9,1.8-4,3.3-6.4,4.2c-2.4,1-4.9,1.5-7.5,1.5c-2.6,0-5.1-0.5-7.5-1.5
					c-2.4-1-4.5-2.4-6.4-4.2c-1.9-1.9-3.4-4-4.3-6.4s-1.4-4.8-1.4-7.3s0.5-4.9,1.4-7.3c0.9-2.4,2.4-4.5,4.3-6.4s4.1-3.3,6.5-4.3
					s4.9-1.4,7.4-1.4s5,0.5,7.4,1.4s4.6,2.4,6.5,4.3l2.7,2.7l-21.8,21.5c2.2,1.1,4.6,1.5,7.1,1.1s4.7-1.5,6.5-3.3L955,985.3z
					 M935.3,971.4c-2.3,2.3-3.5,5.1-3.5,8.3c0,1.8,0.4,3.5,1.2,5.1c0.7-0.7,1.8-1.7,3.2-3.2c1.4-1.4,3-2.9,4.6-4.5s3.2-3.1,4.7-4.5
					s2.6-2.6,3.5-3.4c-2.2-1.1-4.6-1.5-7.1-1.1C939.5,968.5,937.2,969.6,935.3,971.4z"/>
				<path class="st2" d="M965.5,972c1-2.3,2.4-4.4,4.2-6.1c1.8-1.8,3.9-3.1,6.3-4.1s4.9-1.5,7.6-1.5c2.7,0,5.3,0.5,7.7,1.5
					s4.5,2.4,6.3,4.1c1.8,1.8,3.2,3.8,4.3,6.1c1,2.3,1.5,4.9,1.5,7.6V999h-7.8v-19.4c0-1.6-0.3-3.1-0.9-4.5s-1.5-2.6-2.5-3.7
					c-1.1-1.1-2.4-1.9-3.8-2.5c-1.5-0.6-3-0.9-4.7-0.9c-1.6,0-3.2,0.3-4.6,0.9c-1.4,0.6-2.7,1.4-3.8,2.5s-1.9,2.3-2.5,3.7
					c-0.6,1.4-0.9,2.9-0.9,4.5V999h-7.8v-19.4C964,976.9,964.5,974.4,965.5,972z"/>
			</g>
		</g>
		<g>
			<text transform="matrix(1.0155 0 0 1 727.5587 934.8121)" class="st2 st7 st8">Zone Commerciale</text>
		</g>
		<g>
			<path class="st2" d="M894,1039.3c0,0.6-0.4,0.9-1.2,0.9h-0.6h-0.2c-0.1,0-0.2,0-0.2,0c-0.2,0-0.8-0.3-1.8-0.9
				c-1.2,0.6-2.9,0.9-5,0.9h-5.6c-1.7,0-3.1-0.3-4.3-0.8c-1.7-0.7-2.5-1.7-2.5-3v-1c0-1,0.4-1.8,1.3-2.4c0.5-0.3,1.4-0.7,2.7-1.1
				c-1.4-1.2-2.2-2-2.3-2.5c0-0.1,0-0.3,0-0.5c0-0.3,0-0.6,0-0.9c0-0.3,0-0.5,0.1-0.8c0-0.2,0.1-0.4,0.4-0.8c0.9-1.3,2.6-2,5.2-2
				h3.1c1.4,0,2.6,0.2,3.6,0.7c1.3,0.6,1.9,1.6,1.9,2.9c0,0.3,0,0.6,0,0.8c0,0.2,0,0.4,0,0.5c-0.1,0.6-0.9,1.3-2.3,2
				c-0.5,0.3-1,0.5-1.5,0.7c-0.5,0.2-1,0.4-1.6,0.6l6.3,3.5v-3.3c0-0.5,0.2-0.8,0.6-0.9c0.2,0,0.6-0.1,1.3-0.1c0.7,0,1,0.3,1,1v3.2
				c0-0.1,0-0.2,0-0.3s0-0.2,0-0.4v0.1v0.1v0.2v0.2c0,0.1,0,0.2,0,0.2v-0.2c-0.1,0.7-0.2,1.2-0.4,1.5l1.3,0.8
				C893.8,1038.6,894,1038.9,894,1039.3z M887.2,1037.8l-7.6-4.2c-2.7,0.8-4.1,1.4-4.1,1.8v1c0,0.5,0.6,0.9,1.7,1.2
				c0.7,0.2,1.5,0.3,2.4,0.3h5.5C886,1037.9,886.8,1037.9,887.2,1037.8z M885.7,1028.8v-0.8c0-0.8-0.9-1.2-2.6-1.2h-3.1
				c-1.8,0-2.7,0.4-2.7,1.2v0.8c0,0.3,0.2,0.6,0.5,0.8l2.3,1.4l3.6-1C885,1029.6,885.7,1029.2,885.7,1028.8z"/>
			<g>
				<path class="st2" d="M745,1036.4c0,0.9-0.1,1.5-0.4,2c-0.7,1.3-2.9,1.9-6.6,1.9h-10.2c-0.7,0-1-0.3-1-1c0-0.5,0.1-0.8,0.2-1
					c0.2-0.2,0.4-0.4,0.9-0.4H738c2.7,0,4.1-0.5,4.1-1.5v-1.4c0-1-1.3-1.5-4-1.6l-4.9-0.2c-0.2,0-0.6,0-1,0s-0.9-0.1-1.5-0.1
					c-1-0.1-2-0.5-2.7-1c-0.8-0.6-1.2-1.4-1.2-2.5v-1.2c0-1.8,1-3.1,3.1-3.7c1-0.2,6.8-0.4,9.5-0.4c0.7,0,1,0.4,1,1.3
					c0,0.5-0.2,0.8-0.6,1c-0.1,0-4.5,0-5.3,0c-3.2,0-4.8,0.6-4.8,1.7v1.1c0,0.7,0.6,1.1,1.8,1.3c0.2,0,0.6,0.1,1,0.1
					c0.4,0,1,0,1.6,0h3.9c1.9,0,3.4,0.2,4.4,0.7c1.7,0.7,2.6,1.8,2.6,3.2C745,1034.7,745,1036.4,745,1036.4z"/>
				<path class="st2" d="M764.3,1039.3c0,0.5-0.2,0.8-0.6,0.9c-0.1,0.1-0.5,0.1-1.2,0.1s-1-0.3-1-1v-7.3c0-0.8-0.5-1.3-1.4-1.5
					c-0.6-0.1-1.4-0.2-2.3-0.2h-8.2v9c0,0.7-0.3,1-1,1c-0.7,0-1.1,0-1.2-0.1c-0.4-0.1-0.6-0.4-0.6-0.9v-13.8c0-0.5,0.2-0.8,0.6-0.9
					c0.1-0.1,0.5-0.1,1.2-0.1c0.7,0,1,0.3,1,1v2.5h7.5c2.2,0,3.8,0.2,4.7,0.5c1.7,0.6,2.5,1.7,2.5,3.4V1039.3z"/>
				<path class="st2" d="M783.2,1036.4c0,1.4-0.7,2.5-2.1,3.1c-1,0.5-2.4,0.7-4,0.7h-4.6c-1.5,0-2.9-0.3-4.2-0.8
					c-1.5-0.7-2.3-1.7-2.3-3.1v-4.6c0-1.4,0.8-2.5,2.3-3.2c1.1-0.6,2.5-0.8,4.2-0.8h4.6c4.1,0,6.2,1.3,6.2,4L783.2,1036.4
					L783.2,1036.4z M780.3,1036.4v-4.8c0-1-1.1-1.5-3.4-1.5h-4.5c-0.8,0-1.6,0.1-2.3,0.3c-0.9,0.3-1.4,0.8-1.4,1.4v4.6
					c0,0.6,0.5,1,1.5,1.3c0.6,0.2,1.4,0.3,2.3,0.3h4.5c0.7,0,1.4-0.1,2.1-0.3C780,1037.4,780.3,1037,780.3,1036.4z"/>
				<path class="st2" d="M802.5,1036.3c0,2.6-2,3.9-6,3.9h-8.7v2.5c0,0.5-0.2,0.8-0.6,0.9c-0.1,0.1-0.5,0.1-1.2,0.1s-1-0.3-1-1
					v-11.2c0-1.5,0.7-2.6,2.2-3.1c0.8-0.4,2.2-0.6,4.2-0.6h4.4c4.5,0,6.7,1.2,6.7,3.7L802.5,1036.3L802.5,1036.3z M799.7,1036.4
					v-4.8c0-0.7-0.5-1.1-1.5-1.3c-0.4-0.1-1.2-0.1-2.3-0.1h-4.3c-2.5,0-3.7,0.5-3.7,1.5v6.3h8.7
					C798.5,1037.9,799.7,1037.4,799.7,1036.4z"/>
				<path class="st2" d="M821.8,1036.3c0,2.6-2,3.9-6,3.9H807v2.5c0,0.5-0.2,0.8-0.6,0.9c-0.1,0.1-0.5,0.1-1.2,0.1s-1-0.3-1-1v-11.2
					c0-1.5,0.7-2.6,2.2-3.1c0.8-0.4,2.2-0.6,4.2-0.6h4.4c4.5,0,6.7,1.2,6.7,3.7V1036.3L821.8,1036.3z M819,1036.4v-4.8
					c0-0.7-0.5-1.1-1.5-1.3c-0.4-0.1-1.2-0.1-2.3-0.1h-4.4c-2.5,0-3.7,0.5-3.7,1.5v6.3h8.7C817.8,1037.9,819,1037.4,819,1036.4z"/>
				<g>
					<path class="st2" d="M840.8,1034.3c0,0.8-0.3,1.1-0.8,1.1H826v0.1c0,1.2,0.7,1.9,2.1,2.3c0.3,0.1,0.8,0.1,1.3,0.2
						c0.6,0,5.2,0,6.1,0c0.7,0,1,0.4,1,1.3c0,0.7-0.3,1-1,1c-0.9,0-5.5,0.1-6.1,0.1s-1,0-1.4-0.1c-1.5-0.2-2.7-0.5-3.4-1.1
						c-1-0.8-1.5-1.7-1.5-2.8v-4.6c0-1.4,0.8-2.5,2.4-3.2c1.1-0.5,2.5-0.8,4.3-0.8h5.2c1.5,0,2.7,0.2,3.6,0.7c1.3,0.6,2,1.5,2,2.7
						L840.8,1034.3L840.8,1034.3z M838,1033v-1.5c0-0.9-1.9-1.4-5.7-1.4c-2.2,0-3.7,0.1-4.6,0.2c-1.2,0.2-1.8,0.6-1.8,1.3v1.4H838z"
						/>
					<g>
						<path class="st2" d="M858,1038.9c0,0.8-0.3,1.1-1,1.1h-13.6c-0.4,0-0.8-0.1-1.2-0.4c-0.4-0.3-0.6-0.7-0.6-1.1s0.2-0.8,0.7-1.1
							l13.3-9.1c0.3-0.2,0.6-0.3,1-0.3c0.3,0,0.6,0.1,0.8,0.4c0.2,0.2,0.3,0.5,0.3,0.9c0,0.3-0.1,0.6-0.4,0.7l-11.1,7.7H857
							C857.8,1037.8,858,1038.1,858,1038.9z"/>
						<path class="st2" d="M858,1029c0,0.6-0.5,1.1-1.1,1.1h-14c-0.6,0-1.1-0.5-1.1-1.1l0,0c0-0.6,0.5-1.1,1.1-1.1h14
							C857.5,1027.9,858,1028.4,858,1029L858,1029z"/>
					</g>
				</g>
			</g>
			<g>
				<path class="st2" d="M954,1036.7c0,2.4-1.8,3.6-5.5,3.6h-9.4c-0.7,0-1-0.3-1-1c0-0.9,0.3-1.3,1-1.3h9.4c1.7,0,2.6-0.4,2.6-1.3
					v-0.5c0-0.7-0.8-1.1-2.4-1.1h-4.5c-4.2,0-6.2-1.1-6.2-3.4v-0.7c0-1.5,1-2.5,3.1-2.9c0.4-0.1,1-0.2,1.9-0.2
					c0.8,0,5.4-0.1,6.7-0.1c0.7,0,1,0.4,1,1.3c0,0.7-0.3,1-1,1h-5.6c-1,0-1.7,0-1.9,0c-0.9,0.1-1.4,0.4-1.4,0.8v0.7
					c0,0.7,1.2,1.1,3.5,1.1h4.6c3.4,0,5.2,1.1,5.2,3.4v0.6H954z"/>
				<path class="st2" d="M973,1036.3c0,2.6-2,3.9-6,3.9h-8.7v2.5c0,0.5-0.2,0.8-0.6,0.9c-0.1,0.1-0.5,0.1-1.2,0.1c-0.7,0-1-0.3-1-1
					v-11.2c0-1.5,0.7-2.6,2.2-3.1c0.8-0.4,2.2-0.6,4.2-0.6h4.4c4.5,0,6.7,1.2,6.7,3.7V1036.3z M970.2,1036.4v-4.8
					c0-0.7-0.5-1.1-1.5-1.3c-0.4-0.1-1.2-0.1-2.3-0.1h-4.3c-2.5,0-3.7,0.5-3.7,1.5v6.3h8.7C969,1037.9,970.2,1037.4,970.2,1036.4z"
					/>
				<path class="st2" d="M978.2,1026.1c0,0.5-0.2,0.8-0.6,1.1c-0.3,0.2-0.7,0.3-1.2,0.3s-0.9-0.1-1.2-0.3c-0.4-0.3-0.6-0.6-0.6-1.1
					s0.2-0.8,0.6-1.1c0.3-0.2,0.7-0.3,1.2-0.3s0.9,0.1,1.2,0.3C978,1025.3,978.2,1025.7,978.2,1026.1z M977.8,1039.3
					c0,0.7-0.3,1-1,1c-0.7,0-1.1,0-1.2-0.1c-0.4-0.1-0.5-0.4-0.5-0.9v-10.5c0-0.7,0.3-1,1-1c0.7,0,1.1,0,1.2,0.1
					c0.4,0.1,0.6,0.4,0.6,0.9v10.5H977.8z"/>
				<path class="st2" d="M1008.2,1034.3c0,0.8-0.3,1.1-0.8,1.1h-13.8v0.1c0,1.2,0.7,1.9,2.1,2.3c0.3,0.1,0.8,0.1,1.4,0.2
					c0.6,0,5.1,0,6,0c0.7,0,1,0.4,1,1.3c0,0.7-0.3,1-1,1c-0.9,0-5.5,0.1-6.1,0.1s-1,0-1.3-0.1c-1.5-0.2-2.7-0.5-3.4-1.1
					c-1-0.8-1.5-1.7-1.5-2.8v-4.6c0-1.4,0.8-2.5,2.4-3.2c1.1-0.5,2.5-0.8,4.3-0.8h5.2c1.5,0,2.7,0.2,3.6,0.7c1.3,0.6,2,1.5,2,2.7
					L1008.2,1034.3L1008.2,1034.3z M1005.5,1033v-1.5c0-0.9-1.9-1.4-5.7-1.4c-2.2,0-3.8,0.1-4.6,0.2c-1.2,0.2-1.8,0.6-1.8,1.3v1.4
					H1005.5z"/>
				<path class="st2" d="M937.2,1034.3c0,0.8-0.3,1.1-0.8,1.1h-13.8v0.1c0,1.2,0.7,1.9,2.1,2.3c0.3,0.1,0.8,0.1,1.3,0.2
					c0.6,0,5.1,0,6.1,0c0.7,0,1,0.4,1,1.3c0,0.7-0.3,1-1,1c-0.9,0-5.5,0.1-6.1,0.1s-1,0-1.4-0.1c-1.5-0.2-2.7-0.5-3.4-1.1
					c-1-0.8-1.5-1.7-1.5-2.8v-4.6c0-1.4,0.8-2.5,2.4-3.2c1.1-0.5,2.5-0.8,4.3-0.8h5.2c1.5,0,2.7,0.2,3.6,0.7c1.3,0.6,2,1.5,2,2.7
					V1034.3L937.2,1034.3z M934.3,1033v-1.5c0-0.9-1.9-1.4-5.7-1.4c-2.2,0-3.8,0.1-4.6,0.2c-1.2,0.2-1.8,0.6-1.8,1.3v1.4H934.3z"/>
				<g>
					<path class="st2" d="M1025.6,1038.9c0,0.8-0.3,1.1-1,1.1h-13.6c-0.4,0-0.8-0.1-1.2-0.4c-0.4-0.3-0.6-0.7-0.6-1.1
						s0.2-0.8,0.7-1.1l13.2-9.1c0.3-0.2,0.7-0.3,1-0.3c0.3,0,0.6,0.1,0.8,0.4c0.2,0.2,0.3,0.5,0.3,0.9c0,0.3-0.1,0.6-0.3,0.7
						l-11.1,7.7h10.8C1025.2,1037.8,1025.6,1038.1,1025.6,1038.9z"/>
					<path class="st2" d="M1025.4,1029c0,0.6-0.5,1.1-1.1,1.1h-14c-0.6,0-1.1-0.5-1.1-1.1l0,0c0-0.6,0.5-1.1,1.1-1.1h14
						C1024.9,1027.9,1025.4,1028.4,1025.4,1029L1025.4,1029z"/>
				</g>
				<g>
					<path class="st2" d="M918.7,1029.1c0,0.7-0.4,1-1.2,1c-0.1,0-0.3,0-0.5,0c-0.2,0-0.4,0-0.5,0c-2.1,0-3.2,0.5-3.2,1.6v7.6
						c0,0.5-0.2,0.8-0.6,1c-0.2,0.1-0.6,0.1-1.2,0.1c-0.7,0-1-0.3-1-1v-7.6c0-1.6,0.9-2.7,2.6-3.3c1-0.4,2.6-0.6,4.6-0.6
						C918.3,1027.8,918.7,1028.2,918.7,1029.1z"/>
					<path class="st2" d="M911.8,1035.1c0.5,0,1,0.1,1.4,0.3v-6.7c0-0.7-0.3-1-1-1s-1.1,0-1.2,0.1c-0.4,0.1-0.6,0.4-0.6,0.9v6.4
						H911.8z"/>
				</g>
				<g>
					<path class="st2" d="M989,1029.1c0,0.7-0.4,1-1.2,1c-0.1,0-0.3,0-0.5,0s-0.4,0-0.5,0c-2.1,0-3.2,0.5-3.2,1.6v7.6
						c0,0.5-0.2,0.8-0.6,1c-0.2,0.1-0.6,0.1-1.2,0.1c-0.7,0-1-0.3-1-1v-7.6c0-1.6,0.9-2.7,2.6-3.3c1-0.4,2.6-0.6,4.6-0.6
						C988.5,1027.8,989,1028.2,989,1029.1z"/>
					<path class="st2" d="M982.2,1035.1c0.5,0,1,0.1,1.4,0.3v-6.7c0-0.7-0.3-1-1-1c-0.6,0-1.1,0-1.2,0.1c-0.4,0.1-0.6,0.4-0.6,0.9
						v6.4H982.2z"/>
				</g>
			</g>
		</g>
	</g>
</g>
<g id="Calque_2">
	<g>
		<path class="st2" d="M1067.8,121.8H832.2c-2.8,0-5-2.2-5-5V99.7h245.5v17.1C1072.8,119.6,1070.5,121.8,1067.8,121.8z"/>
		<path class="st2" d="M1043,144H855.7c-2.8,0-5-2.2-5-5v-17.1H1048V139C1048,141.7,1045.8,144,1043,144z"/>
		<path class="st2" d="M1067.8,367.3H832.2c-2.8,0-5,2.2-5,5v17.1h245.5v-17.1C1072.8,369.5,1070.5,367.3,1067.8,367.3z"/>
		<path class="st2" d="M1043,345.1H855.7c-2.8,0-5,2.2-5,5v17.1H1048v-17.1C1048,347.4,1045.8,345.1,1043,345.1z"/>
		<path class="st9" d="M1026.4,133.5c0,0,5.4,57.7-38.1,92.5l0,0c0,0-23,18.2,0,37l0,0c0,0,35.5,13.1,38.2,91.9"/>
		<path class="st9" d="M873.9,133.5c0,0-5.4,57.7,38.1,92.5l0,0c0,0,23,18.2,0,37l0,0c0,0-35.5,13.1-38.2,91.9"/>
		<path class="st2" d="M974.2,298.8c0,0-35-43-12.8-64.5c22.1-21.5,23.3-31.9,23.3-31.9h-34.1h-1.5h-33.5c0,0,1.1,10.2,23.3,31.7
			c22.1,21.5-12.8,65-12.8,65S906,316.3,906,350.3h43.2h1.5h43.8C994.4,316.3,974.2,298.8,974.2,298.8z"/>
	</g>
	<g>
		<path class="st2" d="M2861,40.4h-139.4c-2.8,0-5-2.2-5-5V27H2866v8.5C2866,38.2,2863.8,40.4,2861,40.4z"/>
		<path class="st2" d="M2846,53.9h-110.1c-2.8,0-5-2.2-5-5v-8.5H2851v8.5C2851,51.7,2848.7,53.9,2846,53.9z"/>
		<path class="st2" d="M2861,189.9h-139.4c-2.8,0-5,2.2-5,5v8.5H2866v-8.5C2866,192.1,2863.8,189.9,2861,189.9z"/>
		<path class="st2" d="M2846,176.4h-110.1c-2.8,0-5,2.2-5,5v8.5H2851v-8.5C2851,178.6,2848.7,176.4,2846,176.4z"/>
		<path class="st10" d="M2837.9,47.6c0,0,3.3,35.1-23.2,56.3l0,0c0,0-14,11.1,0,22.5l0,0c0,0,21.6,8,23.3,56"/>
		<path class="st10" d="M2745,47.6c0,0-3.3,35.1,23.2,56.3l0,0c0,0,14,11.1,0,22.5l0,0c0,0-21.6,8-23.3,56"/>
		<path class="st2" d="M2806.1,148.1c0,0-21.3-26.2-7.8-39.3c13.5-13.1,14.2-19.4,14.2-19.4h-20.8h-0.9h-20.4c0,0,0.7,6.3,14.2,19.4
			c13.5,13.1-7.8,39.5-7.8,39.5s-12.3,11.2-12.3,31.2h26.3h0.9h26.6C2818.3,159.3,2806.1,148.1,2806.1,148.1z"/>
	</g>
	<g>
		<g>
			<g>
				<path class="st2" d="M2961.5,616.7c-3.7,0-6.2-2.4-6.2-6.1v-11.4c0-4.6,2.2-10.5,13-13.1c1.5-0.3,3-0.6,4.7-0.8
					c1.6-0.2,3.3-0.3,5.2-0.3h18c1.8,0,3.8-0.2,6.1-0.7c1.2-0.3,1.7-0.6,2-0.7v-2.9c-0.5-0.3-1.9-0.8-5.2-1.2
					c-1.3-0.1-4.1-0.3-10.3-0.3c-3.2,0-4.7-1.7-5.3-2.7c-0.6-1.1-0.9-2.4-0.9-4.3c0-3.7,2.4-6.1,6.1-6.1c4.1,0,7.5,0,10,0.1
					c2.6,0.1,4.4,0.2,5.6,0.4c3.7,0.6,6.9,1.9,9.4,3.8c4.3,3.3,5.2,7.1,5.2,9.7c0,4.7-0.6,8-2,10.2c-3.2,5.2-9.9,7.8-20.5,7.8h-18.5
					c-5.6,0-7.5,0.8-8,1.1v4.2h42.7c3.8,0,6.3,2.6,6.3,6.6s-2.5,6.6-6.3,6.6h-51.1V616.7z"/>
				<path class="st2" d="M2988.7,569.5c4.1,0,7.4,0,9.8,0.1c2.4,0.1,4.2,0.2,5.2,0.4c3.2,0.5,5.9,1.6,8,3.2c2.6,2,3.9,4.3,3.9,7.1
					c0,4-0.5,6.8-1.5,8.5c-2.5,4.1-8.4,6.2-17.7,6.2h-18.5c-7.5,0-11.3,1.4-11.3,4.2v7.7h46c2,0,3,1.1,3,3.3s-1,3.3-3,3.3h-51.2
					c-1.9,0-2.9-1-2.9-2.9v-11.4c0-4.9,3.5-8.2,10.4-9.9c1.3-0.3,2.8-0.5,4.3-0.7s3.1-0.2,4.8-0.2h18c2,0,4.3-0.2,6.8-0.7
					c3.1-0.7,4.6-1.9,4.6-3.6v-3.8c0-2-2.7-3.3-8.2-3.9c-2-0.2-5.5-0.3-10.7-0.3c-1.2,0-2-0.4-2.5-1.1c-0.3-0.5-0.4-1.4-0.4-2.6
					C2985.9,570.4,2986.8,569.5,2988.7,569.5 M2988.7,562.9c-5.6,0-9.4,3.9-9.4,9.4c0,2.6,0.4,4.4,1.3,5.9l0.1,0.1
					c0.9,1.6,2.3,2.7,4,3.4h-6.5c-2,0-3.8,0.1-5.5,0.3c-1.8,0.2-3.5,0.5-5.1,0.8c-13.5,3.2-15.5,11.6-15.5,16.3v11.5
					c0,5.6,3.9,9.4,9.4,9.4h51.2c5.6,0,9.5-4.1,9.5-9.9c0-5.8-3.9-9.9-9.5-9.9h-4.7c5.5-1.4,9.4-4.1,11.8-8.1
					c1.7-2.8,2.5-6.6,2.5-11.9c0-3.4-1.1-8.3-6.5-12.3c-3-2.2-6.6-3.7-10.8-4.4c-1.4-0.2-3.3-0.4-6-0.5
					C2996.3,563,2992.9,562.9,2988.7,562.9L2988.7,562.9z M3002.5,580.9L3002.5,580.9L3002.5,580.9L3002.5,580.9z"/>
			</g>
			<g>
				<path class="st2" d="M2924.1,598.1c-10,0-19.6-1.9-28.6-5.7c-8.9-3.7-16.8-9-23.5-15.7c-1.7-1.7-3.3-3.4-4.8-5.3h-297.8
					c-1.8,0-3.3-1.5-3.3-3.3v-68.7c0-1.8,1.5-3.3,3.3-3.3h287.4c3.8-8.3,8.9-15.7,15.4-22.1c6.6-6.5,14.5-11.8,23.4-15.5
					c8.9-3.8,18.6-5.7,28.6-5.7c10.2,0,19.9,1.9,28.7,5.7c8.8,3.7,16.7,9,23.4,15.5c6.8,6.6,12.1,14.3,15.9,23s5.8,18.3,5.8,28.3
					c0,9.9-1.9,19.3-5.8,28.2c-3.8,8.8-9.2,16.6-15.9,23.3c-6.8,6.7-14.6,11.9-23.4,15.7C2944,596.2,2934.3,598.1,2924.1,598.1z"/>
				<path class="st2" d="M2924.1,456.1c9.8,0,19,1.8,27.4,5.4c8.5,3.6,15.9,8.5,22.4,14.8s11.6,13.6,15.2,21.9
					c3.7,8.3,5.5,17.3,5.5,27c0,9.5-1.8,18.4-5.5,26.9c-3.7,8.4-8.7,15.9-15.2,22.2c-6.5,6.4-14,11.4-22.4,15
					c-8.5,3.6-17.6,5.4-27.4,5.4c-9.6,0-18.7-1.8-27.3-5.4c-8.6-3.6-16.1-8.6-22.4-15c-2-2-3.8-4.1-5.6-6.3h-299.4v-68.7h289.5
					c0.2-0.4,0.3-0.7,0.4-1.1c3.7-8.3,8.7-15.6,15.1-21.9c6.4-6.3,13.8-11.2,22.4-14.8C2905.4,457.9,2914.5,456.1,2924.1,456.1
					 M2924.1,449.6c-10.4,0-20.5,2-29.8,5.9c-9.3,3.9-17.6,9.4-24.5,16.2c-6.2,6.1-11.3,13.2-15.1,21.1h-285.3
					c-3.6,0-6.6,2.9-6.6,6.6v68.7c0,3.6,2.9,6.6,6.6,6.6h296.4c1.3,1.5,2.7,3,4,4.4c6.9,7,15.2,12.5,24.5,16.4
					c9.3,3.9,19.4,5.9,29.8,5.9c10.7,0,20.8-2,30-5.9s17.4-9.4,24.5-16.3c7.1-6.9,12.7-15.1,16.6-24.3c4-9.2,6-19.2,6-29.5
					c0-10.5-2-20.5-6-29.7c-4-9.1-9.6-17.1-16.7-24c-7-6.8-15.2-12.3-24.4-16.2C2944.9,451.5,2934.8,449.6,2924.1,449.6
					L2924.1,449.6z"/>
			</g>
		</g>
		<g>
			<rect x="2569.6" y="499.2" class="st5" width="307.5" height="68.7"/>
			<path class="st6" d="M3015.9,580.1c0,4-0.5,6.8-1.5,8.5c-2.5,4.1-8.4,6.2-17.7,6.2h-18.5c-7.5,0-11.3,1.4-11.3,4.1v7.7h46
				c2,0,3,1.1,3,3.3s-1,3.3-3,3.3h-51.2c-1.9,0-2.9-1-2.9-2.9v-11.4c0-4.9,3.5-8.2,10.4-9.9c1.3-0.3,2.8-0.5,4.3-0.7
				s3.1-0.2,4.8-0.2h18c2,0,4.3-0.2,6.8-0.7c3.1-0.7,4.6-1.9,4.6-3.6V580c0-2-2.7-3.3-8.2-3.9c-2-0.2-5.5-0.3-10.7-0.3
				c-1.2,0-2-0.4-2.5-1.1c-0.3-0.5-0.4-1.4-0.4-2.6c0-1.9,0.9-2.8,2.9-2.8c4.1,0,7.4,0,9.9,0.1c2.4,0.1,4.2,0.2,5.2,0.4
				c3.2,0.5,5.9,1.6,8,3.2C3014.6,575,3015.9,577.4,3015.9,580.1z"/>
			<g>
				<path class="st6" d="M2854.1,525.1c0-9.7,1.8-18.7,5.5-27s8.7-15.6,15.1-21.9c6.4-6.3,13.8-11.2,22.4-14.8
					c8.6-3.6,17.7-5.4,27.3-5.4c9.8,0,19,1.8,27.4,5.4c8.5,3.6,15.9,8.5,22.4,14.8s11.6,13.6,15.2,21.9c3.7,8.3,5.5,17.3,5.5,27
					c0,9.5-1.8,18.4-5.5,26.9c-3.7,8.4-8.7,15.9-15.2,22.2c-6.5,6.4-14,11.4-22.4,15c-8.5,3.6-17.6,5.4-27.4,5.4
					c-9.6,0-18.7-1.8-27.3-5.4c-8.6-3.6-16.1-8.6-22.4-15c-6.4-6.4-11.4-13.8-15.1-22.2S2854.1,534.6,2854.1,525.1z M2881.7,525.1
					c0,5.8,1.1,11.2,3.3,16.4c2.2,5.1,5.2,9.6,9.1,13.4c3.9,3.8,8.4,6.8,13.6,9s10.8,3.2,16.6,3.2c5.8,0,11.4-1.1,16.6-3.2
					c5.2-2.2,9.8-5.2,13.6-9c3.9-3.8,6.9-8.3,9.1-13.4c2.2-5.1,3.3-10.6,3.3-16.4c0-5.8-1.1-11.2-3.3-16.2s-5.2-9.5-9.1-13.3
					c-3.9-3.8-8.4-6.8-13.6-9s-10.8-3.2-16.6-3.2c-5.9,0-11.4,1.1-16.6,3.2c-5.2,2.2-9.8,5.1-13.6,9c-3.9,3.8-6.9,8.2-9.1,13.3
					C2882.8,514,2881.7,519.4,2881.7,525.1z"/>
			</g>
			<polygon class="st2" points="2622.2,499.2 2622.2,518.1 2598.8,518.1 2598.8,499.2 2590.6,499.2 2590.6,553.3 2598.8,553.3 
				2598.8,526.2 2622.2,526.2 2622.2,553.3 2630.4,553.3 2630.4,499.2 			"/>
			<g>
				<path class="st2" d="M2655.5,514.4c2.8,0,5.3,0.5,7.7,1.5c2.4,1,4.4,2.4,6.2,4.1c1.8,1.8,3.2,3.8,4.2,6.1s1.5,4.9,1.5,7.6v19.4
					h-19.6c-2.7,0-5.2-0.5-7.6-1.5s-4.5-2.4-6.3-4.2s-3.2-3.9-4.2-6.2c-1-2.4-1.5-4.9-1.5-7.5c0-2.7,0.5-5.2,1.5-7.6
					c1-2.3,2.4-4.4,4.2-6.1c1.8-1.8,3.9-3.1,6.3-4.1C2650.2,514.9,2652.8,514.4,2655.5,514.4z M2667.3,545.5v-11.7
					c0-1.6-0.3-3.1-0.9-4.5s-1.5-2.6-2.5-3.7c-1.1-1.1-2.3-1.9-3.8-2.5c-1.4-0.6-3-0.9-4.6-0.9c-1.6,0-3.2,0.3-4.6,0.9
					c-1.5,0.6-2.7,1.4-3.8,2.5c-1.1,1.1-1.9,2.3-2.6,3.7c-0.6,1.4-0.9,2.9-0.9,4.5s0.3,3.1,0.9,4.6c0.6,1.4,1.5,2.7,2.6,3.8
					c1.1,1.1,2.4,1.9,3.8,2.5c1.5,0.6,3,0.9,4.6,0.9L2667.3,545.5L2667.3,545.5z"/>
				<path class="st2" d="M2698.9,514.4c2.7,0,5.3,0.5,7.7,1.5c2.4,1,4.5,2.4,6.2,4.1c1.8,1.8,3.2,3.8,4.2,6.1s1.5,4.9,1.5,7.6v15.5
					c0,2.7-0.5,5.2-1.5,7.5s-2.4,4.4-4.2,6.2c-1.8,1.8-3.9,3.2-6.2,4.2c-2.4,1-4.9,1.5-7.7,1.5h-3.9v-7.7h3.9c2.6,0,5-0.7,7-2.2
					s3.4-3.4,4.3-5.7H2699c-2.7,0-5.2-0.5-7.6-1.5c-2.4-1-4.5-2.4-6.3-4.2s-3.2-3.9-4.3-6.2c-1-2.4-1.5-4.9-1.5-7.5
					c0-2.7,0.5-5.2,1.5-7.6c1-2.3,2.4-4.4,4.3-6.1c1.8-1.8,3.9-3.1,6.3-4.1C2693.6,514.9,2696.2,514.4,2698.9,514.4z M2686.9,533.7
					c0,1.6,0.3,3.1,0.9,4.6c0.6,1.4,1.5,2.7,2.5,3.8c1.1,1.1,2.4,1.9,3.8,2.5c1.5,0.6,3,0.9,4.7,0.9h11.9v-11.7
					c0-1.6-0.3-3.1-0.9-4.5c-0.6-1.4-1.5-2.6-2.5-3.7c-1.1-1.1-2.4-1.9-3.8-2.5c-1.5-0.6-3-0.9-4.6-0.9s-3.2,0.3-4.7,0.9
					c-1.5,0.6-2.7,1.4-3.8,2.5s-1.9,2.3-2.5,3.7C2687.2,530.6,2686.9,532.1,2686.9,533.7z"/>
				<path class="st2" d="M2762.6,514.4v19.3c0,2.6-0.5,5.2-1.5,7.5c-1,2.4-2.4,4.4-4.3,6.2c-1.8,1.8-3.9,3.2-6.3,4.2
					c-2.4,1-4.9,1.5-7.7,1.5c-2.7,0-5.2-0.5-7.6-1.5c-2.4-1-4.5-2.4-6.3-4.2s-3.2-3.9-4.2-6.2c-1-2.4-1.5-4.9-1.5-7.5v-19.3h7.8
					v19.3c0,1.6,0.3,3.1,0.9,4.6c0.6,1.4,1.5,2.7,2.5,3.8c1.1,1.1,2.3,1.9,3.8,2.5c1.4,0.6,3,0.9,4.6,0.9c1.6,0,3.2-0.3,4.7-0.9
					c1.5-0.6,2.7-1.4,3.8-2.5c1.1-1.1,1.9-2.3,2.5-3.8c0.6-1.4,0.9-3,0.9-4.6v-19.3H2762.6z"/>
				<path class="st2" d="M2797.5,539.5l5.5,5.4l-2.7,2.7c-1.9,1.8-4,3.3-6.4,4.2c-2.4,1-4.9,1.5-7.5,1.5s-5.1-0.5-7.5-1.5
					s-4.5-2.4-6.4-4.2c-1.9-1.9-3.4-4-4.3-6.4s-1.4-4.8-1.4-7.3s0.5-4.9,1.4-7.3c0.9-2.4,2.4-4.5,4.3-6.4c1.9-1.9,4.1-3.3,6.5-4.3
					c2.4-1,4.9-1.4,7.4-1.4s5,0.5,7.4,1.4c2.4,0.9,4.6,2.4,6.5,4.3l2.7,2.7l-21.8,21.5c2.2,1.1,4.6,1.5,7.1,1.1s4.7-1.5,6.5-3.3
					L2797.5,539.5z M2777.9,525.6c-2.3,2.3-3.5,5.1-3.5,8.3c0,1.8,0.4,3.5,1.2,5.1c0.7-0.7,1.8-1.7,3.2-3.2c1.4-1.4,3-2.9,4.6-4.5
					c1.6-1.6,3.2-3.1,4.7-4.5s2.6-2.6,3.5-3.4c-2.2-1.1-4.6-1.5-7.1-1.1S2779.8,523.8,2777.9,525.6z"/>
				<path class="st2" d="M2808,526.2c1-2.3,2.4-4.4,4.2-6.1c1.8-1.8,3.9-3.1,6.3-4.1c2.4-1,4.9-1.5,7.6-1.5c2.7,0,5.3,0.5,7.7,1.5
					c2.4,1,4.5,2.4,6.3,4.1c1.8,1.8,3.2,3.8,4.3,6.1c1,2.3,1.5,4.9,1.5,7.6v19.4h-7.8v-19.4c0-1.6-0.3-3.1-0.9-4.5s-1.5-2.6-2.5-3.7
					c-1.1-1.1-2.4-1.9-3.8-2.5c-1.5-0.6-3-0.9-4.7-0.9c-1.6,0-3.2,0.3-4.6,0.9c-1.4,0.6-2.7,1.4-3.8,2.5c-1.1,1.1-1.9,2.3-2.5,3.7
					c-0.6,1.4-0.9,2.9-0.9,4.5v19.4h-7.8v-19.4C2806.5,531.1,2807,528.6,2808,526.2z"/>
			</g>
		</g>
		<g>
			<text transform="matrix(1.0155 0 0 1 2570.1362 488.9504)" class="st2 st7 st8">Zone Commerciale</text>
		</g>
		<g>
			<path class="st2" d="M2736.5,593.5c0,0.6-0.4,0.9-1.2,0.9h-0.6h-0.2c-0.1,0-0.2,0-0.2,0c-0.2,0-0.8-0.3-1.8-0.9
				c-1.2,0.6-2.9,0.9-5,0.9h-5.6c-1.7,0-3.1-0.3-4.3-0.8c-1.7-0.7-2.5-1.7-2.5-3v-1c0-1,0.4-1.8,1.3-2.4c0.5-0.3,1.4-0.7,2.7-1.1
				c-1.4-1.2-2.2-2-2.3-2.5c0-0.1,0-0.3,0-0.5c0-0.3,0-0.6,0-0.9c0-0.3,0-0.5,0.1-0.8c0-0.2,0.1-0.4,0.4-0.8c0.9-1.3,2.6-2,5.2-2
				h3.1c1.4,0,2.6,0.2,3.6,0.7c1.3,0.6,1.9,1.6,1.9,2.9c0,0.3,0,0.6,0,0.8s0,0.4,0,0.5c-0.1,0.6-0.9,1.3-2.3,2
				c-0.5,0.3-1,0.5-1.5,0.7s-1,0.4-1.6,0.6l6.3,3.5V587c0-0.5,0.2-0.8,0.6-0.9c0.2,0,0.6-0.1,1.3-0.1s1,0.3,1,1v3.2
				c0-0.1,0-0.2,0-0.3s0-0.2,0-0.4v0.1v0.1v0.2v0.2c0,0.1,0,0.2,0,0.2v-0.2c-0.1,0.7-0.2,1.2-0.4,1.5l1.3,0.8
				C2736.3,592.8,2736.5,593.1,2736.5,593.5z M2729.7,592l-7.6-4.2c-2.7,0.8-4.1,1.4-4.1,1.8v1c0,0.5,0.6,0.9,1.7,1.2
				c0.7,0.2,1.5,0.3,2.4,0.3h5.5C2728.6,592.1,2729.3,592.1,2729.7,592z M2728.2,583v-0.8c0-0.8-0.9-1.2-2.6-1.2h-3.1
				c-1.8,0-2.7,0.4-2.7,1.2v0.8c0,0.3,0.2,0.6,0.5,0.8l2.3,1.4l3.6-1C2727.5,583.8,2728.2,583.4,2728.2,583z"/>
			<g>
				<path class="st2" d="M2587.6,590.6c0,0.9-0.1,1.5-0.4,2c-0.7,1.3-2.9,1.9-6.6,1.9h-10.2c-0.7,0-1-0.3-1-1c0-0.5,0.1-0.8,0.2-1
					c0.2-0.2,0.4-0.4,0.9-0.4h10.1c2.7,0,4.1-0.5,4.1-1.5v-1.4c0-1-1.3-1.5-4-1.6l-4.9-0.2c-0.2,0-0.6,0-1,0c-0.4,0-0.9-0.1-1.5-0.1
					c-1-0.1-2-0.5-2.7-1c-0.8-0.6-1.2-1.4-1.2-2.5v-1.2c0-1.8,1-3.1,3.1-3.7c1-0.2,6.8-0.4,9.5-0.4c0.7,0,1,0.4,1,1.3
					c0,0.5-0.2,0.8-0.6,1c-0.1,0-4.5,0-5.3,0c-3.2,0-4.8,0.6-4.8,1.7v1.1c0,0.7,0.6,1.1,1.8,1.3c0.2,0,0.6,0.1,1,0.1
					c0.4,0,1,0,1.6,0h3.9c1.9,0,3.4,0.2,4.4,0.7c1.7,0.7,2.6,1.8,2.6,3.2C2587.6,588.9,2587.6,590.6,2587.6,590.6z"/>
				<path class="st2" d="M2606.9,593.5c0,0.5-0.2,0.8-0.6,0.9c-0.1,0.1-0.5,0.1-1.2,0.1s-1-0.3-1-1v-7.3c0-0.8-0.5-1.3-1.4-1.5
					c-0.6-0.1-1.4-0.2-2.3-0.2h-8.2v9c0,0.7-0.3,1-1,1s-1.1,0-1.2-0.1c-0.4-0.1-0.6-0.4-0.6-0.9v-13.8c0-0.5,0.2-0.8,0.6-0.9
					c0.1-0.1,0.5-0.1,1.2-0.1s1,0.3,1,1v2.5h7.5c2.2,0,3.8,0.2,4.7,0.5c1.7,0.6,2.5,1.7,2.5,3.4V593.5z"/>
				<path class="st2" d="M2625.7,590.6c0,1.4-0.7,2.5-2.1,3.1c-1,0.5-2.4,0.7-4,0.7h-4.6c-1.5,0-2.9-0.3-4.2-0.8
					c-1.5-0.7-2.3-1.7-2.3-3.1v-4.6c0-1.4,0.8-2.5,2.3-3.2c1.1-0.6,2.5-0.8,4.2-0.8h4.6c4.1,0,6.2,1.3,6.2,4L2625.7,590.6
					L2625.7,590.6z M2622.9,590.6v-4.8c0-1-1.1-1.5-3.4-1.5h-4.5c-0.8,0-1.6,0.1-2.3,0.3c-0.9,0.3-1.4,0.8-1.4,1.4v4.6
					c0,0.6,0.5,1,1.5,1.3c0.6,0.2,1.4,0.3,2.3,0.3h4.5c0.7,0,1.4-0.1,2.1-0.3C2622.5,591.6,2622.9,591.2,2622.9,590.6z"/>
				<path class="st2" d="M2645,590.5c0,2.6-2,3.9-6,3.9h-8.7v2.5c0,0.5-0.2,0.8-0.6,0.9c-0.1,0.1-0.5,0.1-1.2,0.1c-0.7,0-1-0.3-1-1
					v-11.2c0-1.5,0.7-2.6,2.2-3.1c0.8-0.4,2.2-0.6,4.2-0.6h4.4c4.5,0,6.7,1.2,6.7,3.7V590.5L2645,590.5z M2642.2,590.6v-4.8
					c0-0.7-0.5-1.1-1.5-1.3c-0.4-0.1-1.2-0.1-2.3-0.1h-4.3c-2.5,0-3.7,0.5-3.7,1.5v6.3h8.7C2641.1,592.1,2642.2,591.6,2642.2,590.6z
					"/>
				<path class="st2" d="M2664.3,590.5c0,2.6-2,3.9-6,3.9h-8.7v2.5c0,0.5-0.2,0.8-0.6,0.9c-0.1,0.1-0.5,0.1-1.2,0.1
					c-0.7,0-1-0.3-1-1v-11.2c0-1.5,0.7-2.6,2.2-3.1c0.8-0.4,2.2-0.6,4.2-0.6h4.4c4.5,0,6.7,1.2,6.7,3.7V590.5L2664.3,590.5z
					 M2661.5,590.6v-4.8c0-0.7-0.5-1.1-1.5-1.3c-0.4-0.1-1.2-0.1-2.3-0.1h-4.4c-2.5,0-3.7,0.5-3.7,1.5v6.3h8.7
					C2660.4,592.1,2661.5,591.6,2661.5,590.6z"/>
				<g>
					<path class="st2" d="M2683.3,588.5c0,0.8-0.3,1.1-0.8,1.1h-13.9v0.1c0,1.2,0.7,1.9,2.1,2.3c0.3,0.1,0.8,0.1,1.3,0.2
						c0.6,0,5.2,0,6.1,0c0.7,0,1,0.4,1,1.3c0,0.7-0.3,1-1,1c-0.9,0-5.5,0.1-6.1,0.1c-0.6,0-1,0-1.4-0.1c-1.5-0.2-2.7-0.5-3.4-1.1
						c-1-0.8-1.5-1.7-1.5-2.8V586c0-1.4,0.8-2.5,2.4-3.2c1.1-0.5,2.5-0.8,4.3-0.8h5.2c1.5,0,2.7,0.2,3.6,0.7c1.3,0.6,2,1.5,2,2.7
						L2683.3,588.5L2683.3,588.5z M2680.5,587.2v-1.5c0-0.9-1.9-1.4-5.7-1.4c-2.2,0-3.7,0.1-4.6,0.2c-1.2,0.2-1.8,0.6-1.8,1.3v1.4
						H2680.5z"/>
					<g>
						<path class="st2" d="M2700.6,593.1c0,0.8-0.3,1.1-1,1.1H2686c-0.4,0-0.8-0.1-1.2-0.4c-0.4-0.3-0.6-0.7-0.6-1.1
							c0-0.4,0.2-0.8,0.7-1.1l13.3-9.1c0.3-0.2,0.6-0.3,1-0.3c0.3,0,0.6,0.1,0.8,0.4c0.2,0.2,0.3,0.5,0.3,0.9c0,0.3-0.1,0.6-0.4,0.7
							l-11.1,7.7h10.8C2700.3,592,2700.6,592.3,2700.6,593.1z"/>
						<path class="st2" d="M2700.5,583.2c0,0.6-0.5,1.1-1.1,1.1h-14c-0.6,0-1.1-0.5-1.1-1.1l0,0c0-0.6,0.5-1.1,1.1-1.1h14
							C2700,582.1,2700.5,582.6,2700.5,583.2L2700.5,583.2z"/>
					</g>
				</g>
			</g>
			<g>
				<path class="st2" d="M2796.5,590.9c0,2.4-1.8,3.6-5.5,3.6h-9.4c-0.7,0-1-0.3-1-1c0-0.9,0.3-1.3,1-1.3h9.4c1.7,0,2.6-0.4,2.6-1.3
					v-0.5c0-0.7-0.8-1.1-2.4-1.1h-4.5c-4.2,0-6.2-1.1-6.2-3.4v-0.7c0-1.5,1-2.5,3.1-2.9c0.4-0.1,1-0.2,1.9-0.2
					c0.8,0,5.4-0.1,6.7-0.1c0.7,0,1,0.4,1,1.3c0,0.7-0.3,1-1,1h-5.6c-1,0-1.7,0-1.9,0c-0.9,0.1-1.4,0.4-1.4,0.8v0.7
					c0,0.7,1.2,1.1,3.5,1.1h4.6c3.4,0,5.2,1.1,5.2,3.4L2796.5,590.9L2796.5,590.9z"/>
				<path class="st2" d="M2815.5,590.5c0,2.6-2,3.9-6,3.9h-8.7v2.5c0,0.5-0.2,0.8-0.6,0.9c-0.1,0.1-0.5,0.1-1.2,0.1
					c-0.7,0-1-0.3-1-1v-11.2c0-1.5,0.7-2.6,2.2-3.1c0.8-0.4,2.2-0.6,4.2-0.6h4.4c4.5,0,6.7,1.2,6.7,3.7V590.5z M2812.7,590.6v-4.8
					c0-0.7-0.5-1.1-1.5-1.3c-0.4-0.1-1.2-0.1-2.3-0.1h-4.3c-2.5,0-3.7,0.5-3.7,1.5v6.3h8.7C2811.6,592.1,2812.7,591.6,2812.7,590.6z
					"/>
				<path class="st2" d="M2820.8,580.3c0,0.5-0.2,0.8-0.6,1.1c-0.3,0.2-0.7,0.3-1.2,0.3s-0.9-0.1-1.2-0.3c-0.4-0.3-0.6-0.6-0.6-1.1
					s0.2-0.8,0.6-1.1c0.3-0.2,0.7-0.3,1.2-0.3s0.9,0.1,1.2,0.3C2820.6,579.5,2820.8,579.9,2820.8,580.3z M2820.4,593.5
					c0,0.7-0.3,1-1,1s-1.1,0-1.2-0.1c-0.4-0.1-0.5-0.4-0.5-0.9V583c0-0.7,0.3-1,1-1s1.1,0,1.2,0.1c0.4,0.1,0.6,0.4,0.6,0.9v10.5
					H2820.4z"/>
				<path class="st2" d="M2850.7,588.5c0,0.8-0.3,1.1-0.8,1.1h-13.8v0.1c0,1.2,0.7,1.9,2.1,2.3c0.3,0.1,0.8,0.1,1.4,0.2
					c0.6,0,5.1,0,6,0c0.7,0,1,0.4,1,1.3c0,0.7-0.3,1-1,1c-0.9,0-5.5,0.1-6.1,0.1c-0.6,0-1,0-1.3-0.1c-1.5-0.2-2.7-0.5-3.4-1.1
					c-1-0.8-1.5-1.7-1.5-2.8V586c0-1.4,0.8-2.5,2.4-3.2c1.1-0.5,2.5-0.8,4.3-0.8h5.2c1.5,0,2.7,0.2,3.6,0.7c1.3,0.6,2,1.5,2,2.7v3.1
					H2850.7z M2848,587.2v-1.5c0-0.9-1.9-1.4-5.7-1.4c-2.2,0-3.8,0.1-4.6,0.2c-1.2,0.2-1.8,0.6-1.8,1.3v1.4H2848z"/>
				<path class="st2" d="M2779.7,588.5c0,0.8-0.3,1.1-0.8,1.1h-13.8v0.1c0,1.2,0.7,1.9,2.1,2.3c0.3,0.1,0.8,0.1,1.3,0.2
					c0.6,0,5.1,0,6.1,0c0.7,0,1,0.4,1,1.3c0,0.7-0.3,1-1,1c-0.9,0-5.5,0.1-6.1,0.1c-0.6,0-1,0-1.4-0.1c-1.5-0.2-2.7-0.5-3.4-1.1
					c-1-0.8-1.5-1.7-1.5-2.8V586c0-1.4,0.8-2.5,2.4-3.2c1.1-0.5,2.5-0.8,4.3-0.8h5.2c1.5,0,2.7,0.2,3.6,0.7c1.3,0.6,2,1.5,2,2.7
					V588.5L2779.7,588.5z M2776.9,587.2v-1.5c0-0.9-1.9-1.4-5.7-1.4c-2.2,0-3.8,0.1-4.6,0.2c-1.2,0.2-1.8,0.6-1.8,1.3v1.4H2776.9z"
					/>
				<g>
					<path class="st2" d="M2868.1,593.1c0,0.8-0.3,1.1-1,1.1h-13.6c-0.4,0-0.8-0.1-1.2-0.4c-0.4-0.3-0.6-0.7-0.6-1.1
						c0-0.4,0.2-0.8,0.7-1.1l13.2-9.1c0.3-0.2,0.7-0.3,1-0.3s0.6,0.1,0.8,0.4c0.2,0.2,0.3,0.5,0.3,0.9c0,0.3-0.1,0.6-0.3,0.7
						l-11.1,7.7h10.8C2867.8,592,2868.1,592.3,2868.1,593.1z"/>
					<path class="st2" d="M2868,583.2c0,0.6-0.5,1.1-1.1,1.1h-14c-0.6,0-1.1-0.5-1.1-1.1l0,0c0-0.6,0.5-1.1,1.1-1.1h14
						C2867.5,582.1,2868,582.6,2868,583.2L2868,583.2z"/>
				</g>
				<g>
					<path class="st2" d="M2761.2,583.3c0,0.7-0.4,1-1.2,1c-0.1,0-0.3,0-0.5,0c-0.2,0-0.4,0-0.5,0c-2.1,0-3.2,0.5-3.2,1.6v7.6
						c0,0.5-0.2,0.8-0.6,1c-0.2,0.1-0.6,0.1-1.2,0.1c-0.7,0-1-0.3-1-1V586c0-1.6,0.9-2.7,2.6-3.3c1-0.4,2.6-0.6,4.6-0.6
						C2760.9,582,2761.2,582.4,2761.2,583.3z"/>
					<path class="st2" d="M2754.4,589.3c0.5,0,1,0.1,1.4,0.3v-6.7c0-0.7-0.3-1-1-1c-0.7,0-1.1,0-1.2,0.1c-0.4,0.1-0.6,0.4-0.6,0.9
						v6.4H2754.4z"/>
				</g>
				<g>
					<path class="st2" d="M2831.5,583.3c0,0.7-0.4,1-1.2,1c-0.1,0-0.3,0-0.5,0c-0.2,0-0.4,0-0.5,0c-2.1,0-3.2,0.5-3.2,1.6v7.6
						c0,0.5-0.2,0.8-0.6,1c-0.2,0.1-0.6,0.1-1.2,0.1c-0.7,0-1-0.3-1-1V586c0-1.6,0.9-2.7,2.6-3.3c1-0.4,2.6-0.6,4.6-0.6
						C2831.1,582,2831.5,582.4,2831.5,583.3z"/>
					<path class="st2" d="M2824.7,589.3c0.5,0,1,0.1,1.4,0.3v-6.7c0-0.7-0.3-1-1-1c-0.6,0-1.1,0-1.2,0.1c-0.4,0.1-0.6,0.4-0.6,0.9
						v6.4H2824.7z"/>
				</g>
			</g>
		</g>
	</g>
</g>
</svg>
