<?xml version="1.0" encoding="utf-8"?>
<!-- Generator: Adobe Illustrator 20.1.0, SVG Export Plug-In . SVG Version: 6.00 Build 0)  -->
<svg version="1.1" id="Calque_1" xmlns="http://www.w3.org/2000/svg" xmlns:xlink="http://www.w3.org/1999/xlink" x="0px" y="0px"
	 viewBox="0 0 640 750" style="enable-background:new 0 0 640 750;" xml:space="preserve">
<style type="text/css">
	.st0{fill:url(#SVGID_1_);}
	.st1{fill:url(#SVGID_2_);}
	.st2{enable-background:new    ;}
	.st3{fill:#FFFFFF;}
	.st4{font-family:'OpenSans-Bold';}
	.st5{font-size:57.8656px;}
	.st6{fill:#2FBCCB;}
	.st7{fill:#95C856;}
	.st8{fill:none;stroke:#FFFFFF;stroke-width:8.7073;stroke-miterlimit:10;}
	.st9{fill:none;stroke:#FFFFFF;stroke-width:5.2999;stroke-miterlimit:10;}
	.st10{font-family:'HelveticaNeue-CondensedBold';}
	.st11{font-size:37.8279px;}
</style>
<radialGradient id="SVGID_1_" cx="322.1" cy="-831.7707" r="265.814" gradientTransform="matrix(1 0 0 2.1211 0 2140.1687)" gradientUnits="userSpaceOnUse">
	<stop  offset="0" style="stop-color:#3F3F3F"/>
	<stop  offset="0.3632" style="stop-color:#3A3A3A"/>
	<stop  offset="0.5659" style="stop-color:#353535"/>
	<stop  offset="1" style="stop-color:#323232"/>
</radialGradient>
<rect x="-9.8" y="1.5" class="st0" width="663.8" height="748.8"/>
<text transform="matrix(1 0 0 1 126.0879 329.266)" class="st3 st4 st5">Site en cours</text>
<text transform="matrix(1 0 0 1 92.9879 398.666)" class="st3 st4 st5">de construction</text>
<g>
	<path class="st3" d="M389.7,87.9H250.3c-2.8,0-5-2.2-5-5v-8.5h149.4v8.5C394.7,85.6,392.5,87.9,389.7,87.9z"/>
	<path class="st3" d="M374.7,101.3H264.5c-2.8,0-5-2.2-5-5v-8.5h120.1v8.5C379.7,99.1,377.4,101.3,374.7,101.3z"/>
	<path class="st3" d="M389.7,237.3H250.3c-2.8,0-5,2.2-5,5v8.5h149.4v-8.5C394.7,239.5,392.5,237.3,389.7,237.3z"/>
	<path class="st3" d="M374.7,223.8H264.5c-2.8,0-5,2.2-5,5v8.5h120.1v-8.5C379.7,226,377.4,223.8,374.7,223.8z"/>
	<path class="st9" d="M366.5,95c0,0,3.3,35.1-23.2,56.3l0,0c0,0-14,11.1,0,22.5l0,0c0,0,21.6,8,23.3,56"/>
	<path class="st9" d="M273.7,95c0,0-3.3,35.1,23.2,56.3l0,0c0,0,14,11.1,0,22.5l0,0c0,0-21.6,8-23.3,56"/>
	<path class="st3" d="M334.7,195.5c0,0-21.3-26.2-7.8-39.3s14.2-19.4,14.2-19.4h-20.8h-0.9H299c0,0,0.7,6.3,14.2,19.4
		c13.5,13.1-7.8,39.5-7.8,39.5s-12.3,11.2-12.3,31.2h26.3h0.9H347C347,206.7,334.7,195.5,334.7,195.5z"/>
</g>
<g>
	<g>
		<g>
			<path class="st3" d="M490.2,664.1c-3.7,0-6.2-2.4-6.2-6.1v-11.4c0-4.6,2.2-10.5,13-13.1c1.5-0.3,3-0.6,4.7-0.8
				c1.6-0.2,3.3-0.3,5.2-0.3h18c1.8,0,3.8-0.2,6.1-0.7c1.2-0.3,1.7-0.6,2-0.7v-2.9c-0.5-0.3-1.9-0.8-5.2-1.2
				c-1.3-0.1-4.1-0.3-10.3-0.3c-3.2,0-4.7-1.7-5.3-2.7c-0.6-1.1-0.9-2.4-0.9-4.3c0-3.7,2.4-6.1,6.1-6.1c4.1,0,7.5,0,10,0.1
				c2.6,0.1,4.4,0.2,5.6,0.4c3.7,0.6,6.9,1.9,9.4,3.8c4.3,3.3,5.2,7.1,5.2,9.7c0,4.7-0.6,8-2,10.2c-3.2,5.2-9.9,7.8-20.5,7.8h-18.5
				c-5.6,0-7.5,0.8-8,1.1v4.2h42.7c3.8,0,6.3,2.6,6.3,6.6s-2.5,6.6-6.3,6.6h-51.1L490.2,664.1L490.2,664.1z"/>
			<path class="st3" d="M517.4,616.9c4.1,0,7.4,0,9.8,0.1c2.4,0.1,4.2,0.2,5.2,0.4c3.2,0.5,5.9,1.6,8,3.2c2.6,2,3.9,4.3,3.9,7.1
				c0,4-0.5,6.8-1.5,8.5c-2.5,4.1-8.4,6.2-17.7,6.2h-18.5c-7.5,0-11.3,1.4-11.3,4.2v7.7h46c2,0,3,1.1,3,3.3s-1,3.3-3,3.3h-51.2
				c-1.9,0-2.9-1-2.9-2.9v-11.4c0-4.9,3.5-8.2,10.4-9.9c1.3-0.3,2.8-0.5,4.3-0.7s3.1-0.2,4.8-0.2h18c2,0,4.3-0.2,6.8-0.7
				c3.1-0.7,4.6-1.9,4.6-3.6v-3.8c0-2-2.7-3.3-8.2-3.9c-2-0.2-5.5-0.3-10.7-0.3c-1.2,0-2-0.4-2.5-1.1c-0.3-0.5-0.4-1.4-0.4-2.6
				C514.6,617.8,515.5,616.9,517.4,616.9 M517.4,610.3c-5.6,0-9.4,3.9-9.4,9.4c0,2.6,0.4,4.4,1.3,5.9l0.1,0.1c0.9,1.6,2.3,2.7,4,3.4
				h-6.5c-2,0-3.8,0.1-5.5,0.3c-1.8,0.2-3.5,0.5-5.1,0.8c-13.5,3.2-15.5,11.6-15.5,16.3V658c0,5.6,3.9,9.4,9.4,9.4h51.2
				c5.6,0,9.5-4.1,9.5-9.9c0-5.8-3.9-9.9-9.5-9.9h-4.7c5.5-1.4,9.4-4.1,11.8-8.1c1.7-2.8,2.5-6.6,2.5-11.9c0-3.4-1.1-8.3-6.5-12.3
				c-3-2.2-6.6-3.7-10.8-4.4c-1.4-0.2-3.3-0.4-6-0.5C525,610.4,521.6,610.3,517.4,610.3L517.4,610.3z M531.2,628.3L531.2,628.3
				L531.2,628.3L531.2,628.3z"/>
		</g>
		<g>
			<path class="st3" d="M452.8,645.5c-10,0-19.6-1.9-28.6-5.7c-8.9-3.7-16.8-9-23.5-15.7c-1.7-1.7-3.3-3.4-4.8-5.3H98.1
				c-1.8,0-3.3-1.5-3.3-3.3v-68.7c0-1.8,1.5-3.3,3.3-3.3h287.4c3.8-8.3,8.9-15.7,15.4-22.1c6.6-6.5,14.5-11.8,23.4-15.5
				c8.9-3.8,18.6-5.7,28.6-5.7c10.2,0,19.9,1.9,28.7,5.7c8.8,3.7,16.7,9,23.4,15.5c6.8,6.6,12.1,14.3,15.9,23
				c3.8,8.7,5.8,18.3,5.8,28.3c0,9.9-1.9,19.3-5.8,28.2c-3.8,8.8-9.2,16.6-15.9,23.3c-6.8,6.7-14.6,11.9-23.4,15.7
				C472.7,643.6,463,645.5,452.8,645.5z"/>
			<path class="st3" d="M452.8,503.5c9.8,0,19,1.8,27.4,5.4c8.5,3.6,15.9,8.5,22.4,14.8s11.6,13.6,15.2,21.9
				c3.7,8.3,5.5,17.3,5.5,27c0,9.5-1.8,18.4-5.5,26.9c-3.7,8.4-8.7,15.9-15.2,22.2c-6.5,6.4-14,11.4-22.4,15
				c-8.5,3.6-17.6,5.4-27.4,5.4c-9.6,0-18.7-1.8-27.3-5.4c-8.6-3.6-16.1-8.6-22.4-15c-2-2-3.8-4.1-5.6-6.3H98.1v-68.7h289.5
				c0.2-0.4,0.3-0.7,0.4-1.1c3.7-8.3,8.7-15.6,15.1-21.9c6.4-6.3,13.8-11.2,22.4-14.8C434.1,505.3,443.2,503.5,452.8,503.5
				 M452.8,497c-10.4,0-20.5,2-29.8,5.9s-17.6,9.4-24.5,16.2c-6.2,6.1-11.3,13.2-15.1,21.1H98.1c-3.6,0-6.6,2.9-6.6,6.6v68.7
				c0,3.6,2.9,6.6,6.6,6.6h296.4c1.3,1.5,2.7,3,4,4.4c6.9,7,15.2,12.5,24.5,16.4s19.4,5.9,29.8,5.9c10.7,0,20.8-2,30-5.9
				s17.4-9.4,24.5-16.3c7.1-6.9,12.7-15.1,16.6-24.3c4-9.2,6-19.2,6-29.5c0-10.5-2-20.5-6-29.7c-4-9.1-9.6-17.1-16.7-24
				c-7-6.8-15.2-12.3-24.4-16.2C473.6,498.9,463.5,497,452.8,497L452.8,497z"/>
		</g>
	</g>
	<g>
		<rect x="98.3" y="546.6" class="st6" width="307.5" height="68.7"/>
		<path class="st7" d="M544.6,627.5c0,4-0.5,6.8-1.5,8.5c-2.5,4.1-8.4,6.2-17.7,6.2h-18.5c-7.5,0-11.3,1.4-11.3,4.1v7.7h46
			c2,0,3,1.1,3,3.3s-1,3.3-3,3.3h-51.2c-1.9,0-2.9-1-2.9-2.9v-11.4c0-4.9,3.5-8.2,10.4-9.9c1.3-0.3,2.8-0.5,4.3-0.7s3.1-0.2,4.8-0.2
			h18c2,0,4.3-0.2,6.8-0.7c3.1-0.7,4.6-1.9,4.6-3.6v-3.8c0-2-2.7-3.3-8.2-3.9c-2-0.2-5.5-0.3-10.7-0.3c-1.2,0-2-0.4-2.5-1.1
			c-0.3-0.5-0.4-1.4-0.4-2.6c0-1.9,0.9-2.8,2.9-2.8c4.1,0,7.4,0,9.9,0.1c2.4,0.1,4.2,0.2,5.2,0.4c3.2,0.5,5.9,1.6,8,3.2
			C543.3,622.4,544.6,624.8,544.6,627.5z"/>
		<g>
			<path class="st7" d="M382.8,572.5c0-9.7,1.8-18.7,5.5-27s8.7-15.6,15.1-21.9c6.4-6.3,13.8-11.2,22.4-14.8
				c8.6-3.6,17.7-5.4,27.3-5.4c9.8,0,19,1.8,27.4,5.4c8.5,3.6,15.9,8.5,22.4,14.8s11.6,13.6,15.2,21.9c3.7,8.3,5.5,17.3,5.5,27
				c0,9.5-1.8,18.4-5.5,26.9c-3.7,8.4-8.7,15.9-15.2,22.2c-6.5,6.4-14,11.4-22.4,15c-8.5,3.6-17.6,5.4-27.4,5.4
				c-9.6,0-18.7-1.8-27.3-5.4c-8.6-3.6-16.1-8.6-22.4-15c-6.4-6.4-11.4-13.8-15.1-22.2C384.6,591,382.8,582,382.8,572.5z
				 M410.4,572.5c0,5.8,1.1,11.2,3.3,16.4c2.2,5.1,5.2,9.6,9.1,13.4c3.9,3.8,8.4,6.8,13.6,9s10.8,3.2,16.6,3.2
				c5.8,0,11.4-1.1,16.6-3.2c5.2-2.2,9.8-5.2,13.6-9c3.9-3.8,6.9-8.3,9.1-13.4c2.2-5.1,3.3-10.6,3.3-16.4c0-5.8-1.1-11.2-3.3-16.2
				c-2.2-5-5.2-9.5-9.1-13.3s-8.4-6.8-13.6-9s-10.8-3.2-16.6-3.2c-5.9,0-11.4,1.1-16.6,3.2c-5.2,2.2-9.8,5.1-13.6,9
				c-3.9,3.8-6.9,8.2-9.1,13.3C411.5,561.4,410.4,566.8,410.4,572.5z"/>
		</g>
		<polygon class="st3" points="150.9,546.6 150.9,565.5 127.5,565.5 127.5,546.6 119.3,546.6 119.3,600.7 127.5,600.7 127.5,573.6 
			150.9,573.6 150.9,600.7 159.1,600.7 159.1,546.6 		"/>
		<g>
			<path class="st3" d="M184.2,561.8c2.8,0,5.3,0.5,7.7,1.5s4.4,2.4,6.2,4.1c1.8,1.8,3.2,3.8,4.2,6.1s1.5,4.9,1.5,7.6v19.4h-19.6
				c-2.7,0-5.2-0.5-7.6-1.5c-2.4-1-4.5-2.4-6.3-4.2s-3.2-3.9-4.2-6.2c-1-2.4-1.5-4.9-1.5-7.5c0-2.7,0.5-5.2,1.5-7.6
				c1-2.3,2.4-4.4,4.2-6.1c1.8-1.8,3.9-3.1,6.3-4.1C178.9,562.3,181.5,561.8,184.2,561.8z M196,592.9v-11.7c0-1.6-0.3-3.1-0.9-4.5
				c-0.6-1.4-1.5-2.6-2.5-3.7c-1.1-1.1-2.3-1.9-3.8-2.5c-1.4-0.6-3-0.9-4.6-0.9s-3.2,0.3-4.6,0.9c-1.5,0.6-2.7,1.4-3.8,2.5
				s-1.9,2.3-2.6,3.7c-0.6,1.4-0.9,2.9-0.9,4.5s0.3,3.1,0.9,4.6c0.6,1.4,1.5,2.7,2.6,3.8s2.4,1.9,3.8,2.5c1.5,0.6,3,0.9,4.6,0.9
				L196,592.9L196,592.9z"/>
			<path class="st3" d="M227.6,561.8c2.7,0,5.3,0.5,7.7,1.5s4.5,2.4,6.2,4.1c1.8,1.8,3.2,3.8,4.2,6.1s1.5,4.9,1.5,7.6v15.5
				c0,2.7-0.5,5.2-1.5,7.5s-2.4,4.4-4.2,6.2s-3.9,3.2-6.2,4.2c-2.4,1-4.9,1.5-7.7,1.5h-3.9v-7.7h3.9c2.6,0,5-0.7,7-2.2
				s3.4-3.4,4.3-5.7h-11.2c-2.7,0-5.2-0.5-7.6-1.5c-2.4-1-4.5-2.4-6.3-4.2s-3.2-3.9-4.3-6.2c-1-2.4-1.5-4.9-1.5-7.5
				c0-2.7,0.5-5.2,1.5-7.6c1-2.3,2.4-4.4,4.3-6.1c1.8-1.8,3.9-3.1,6.3-4.1C222.3,562.3,224.9,561.8,227.6,561.8z M215.6,581.1
				c0,1.6,0.3,3.1,0.9,4.6c0.6,1.4,1.5,2.7,2.5,3.8c1.1,1.1,2.4,1.9,3.8,2.5c1.5,0.6,3,0.9,4.7,0.9h11.9v-11.7
				c0-1.6-0.3-3.1-0.9-4.5c-0.6-1.4-1.5-2.6-2.5-3.7c-1.1-1.1-2.4-1.9-3.8-2.5c-1.5-0.6-3-0.9-4.6-0.9s-3.2,0.3-4.7,0.9
				c-1.5,0.6-2.7,1.4-3.8,2.5s-1.9,2.3-2.5,3.7C215.9,578,215.6,579.5,215.6,581.1z"/>
			<path class="st3" d="M291.3,561.8v19.3c0,2.6-0.5,5.2-1.5,7.5c-1,2.4-2.4,4.4-4.3,6.2c-1.8,1.8-3.9,3.2-6.3,4.2s-4.9,1.5-7.7,1.5
				c-2.7,0-5.2-0.5-7.6-1.5s-4.5-2.4-6.3-4.2c-1.8-1.8-3.2-3.9-4.2-6.2c-1-2.4-1.5-4.9-1.5-7.5v-19.3h7.8v19.3
				c0,1.6,0.3,3.1,0.9,4.6c0.6,1.4,1.5,2.7,2.5,3.8c1.1,1.1,2.3,1.9,3.8,2.5c1.4,0.6,3,0.9,4.6,0.9s3.2-0.3,4.7-0.9
				c1.5-0.6,2.7-1.4,3.8-2.5c1.1-1.1,1.9-2.3,2.5-3.8c0.6-1.4,0.9-3,0.9-4.6v-19.3H291.3z"/>
			<path class="st3" d="M326.2,586.9l5.5,5.4L329,595c-1.9,1.8-4,3.3-6.4,4.2c-2.4,1-4.9,1.5-7.5,1.5s-5.1-0.5-7.5-1.5
				s-4.5-2.4-6.4-4.2c-1.9-1.9-3.4-4-4.3-6.4s-1.4-4.8-1.4-7.3s0.5-4.9,1.4-7.3c0.9-2.4,2.4-4.5,4.3-6.4s4.1-3.3,6.5-4.3
				s4.9-1.4,7.4-1.4s5,0.5,7.4,1.4s4.6,2.4,6.5,4.3l2.7,2.7l-21.8,21.5c2.2,1.1,4.6,1.5,7.1,1.1s4.7-1.5,6.5-3.3L326.2,586.9z
				 M306.6,573c-2.3,2.3-3.5,5.1-3.5,8.3c0,1.8,0.4,3.5,1.2,5.1c0.7-0.7,1.8-1.7,3.2-3.2c1.4-1.4,3-2.9,4.6-4.5s3.2-3.1,4.7-4.5
				s2.6-2.6,3.5-3.4c-2.2-1.1-4.6-1.5-7.1-1.1C310.7,570.1,308.5,571.2,306.6,573z"/>
			<path class="st3" d="M336.7,573.6c1-2.3,2.4-4.4,4.2-6.1c1.8-1.8,3.9-3.1,6.3-4.1s4.9-1.5,7.6-1.5s5.3,0.5,7.7,1.5
				c2.4,1,4.5,2.4,6.3,4.1c1.8,1.8,3.2,3.8,4.3,6.1c1,2.3,1.5,4.9,1.5,7.6v19.4h-7.8v-19.4c0-1.6-0.3-3.1-0.9-4.5s-1.5-2.6-2.5-3.7
				c-1.1-1.1-2.4-1.9-3.8-2.5c-1.5-0.6-3-0.9-4.7-0.9c-1.6,0-3.2,0.3-4.6,0.9c-1.4,0.6-2.7,1.4-3.8,2.5c-1.1,1.1-1.9,2.3-2.5,3.7
				s-0.9,2.9-0.9,4.5v19.4h-7.8v-19.4C335.2,578.5,335.7,576,336.7,573.6z"/>
		</g>
	</g>
	<g>
		<text transform="matrix(1.0155 0 0 1 98.8086 536.3643)" class="st3 st10 st11">Zone Commerciale</text>
	</g>
	<g>
		<path class="st3" d="M265.2,640.9c0,0.6-0.4,0.9-1.2,0.9h-0.6h-0.2c-0.1,0-0.2,0-0.2,0c-0.2,0-0.8-0.3-1.8-0.9
			c-1.2,0.6-2.9,0.9-5,0.9h-5.6c-1.7,0-3.1-0.3-4.3-0.8c-1.7-0.7-2.5-1.7-2.5-3v-1c0-1,0.4-1.8,1.3-2.4c0.5-0.3,1.4-0.7,2.7-1.1
			c-1.4-1.2-2.2-2-2.3-2.5c0-0.1,0-0.3,0-0.5c0-0.3,0-0.6,0-0.9c0-0.3,0-0.5,0.1-0.8c0-0.2,0.1-0.4,0.4-0.8c0.9-1.3,2.6-2,5.2-2h3.1
			c1.4,0,2.6,0.2,3.6,0.7c1.3,0.6,1.9,1.6,1.9,2.9c0,0.3,0,0.6,0,0.8s0,0.4,0,0.5c-0.1,0.6-0.9,1.3-2.3,2c-0.5,0.3-1,0.5-1.5,0.7
			s-1,0.4-1.6,0.6l6.3,3.5v-3.3c0-0.5,0.2-0.8,0.6-0.9c0.2,0,0.6-0.1,1.3-0.1c0.7,0,1,0.3,1,1v3.2c0-0.1,0-0.2,0-0.3s0-0.2,0-0.4
			v0.1v0.1v0.2v0.2c0,0.1,0,0.2,0,0.2v-0.2c-0.1,0.7-0.2,1.2-0.4,1.5l1.3,0.8C265,640.2,265.2,640.5,265.2,640.9z M258.4,639.4
			l-7.6-4.2c-2.7,0.8-4.1,1.4-4.1,1.8v1c0,0.5,0.6,0.9,1.7,1.2c0.7,0.2,1.5,0.3,2.4,0.3h5.5C257.3,639.5,258,639.5,258.4,639.4z
			 M256.9,630.4v-0.8c0-0.8-0.9-1.2-2.6-1.2h-3.1c-1.8,0-2.7,0.4-2.7,1.2v0.8c0,0.3,0.2,0.6,0.5,0.8l2.3,1.4l3.6-1
			C256.2,631.2,256.9,630.8,256.9,630.4z"/>
		<g>
			<path class="st3" d="M116.3,638c0,0.9-0.1,1.5-0.4,2c-0.7,1.3-2.9,1.9-6.6,1.9H99.1c-0.7,0-1-0.3-1-1c0-0.5,0.1-0.8,0.2-1
				c0.2-0.2,0.4-0.4,0.9-0.4h10.1c2.7,0,4.1-0.5,4.1-1.5v-1.4c0-1-1.3-1.5-4-1.6l-4.9-0.2c-0.2,0-0.6,0-1,0s-0.9-0.1-1.5-0.1
				c-1-0.1-2-0.5-2.7-1c-0.8-0.6-1.2-1.4-1.2-2.5V630c0-1.8,1-3.1,3.1-3.7c1-0.2,6.8-0.4,9.5-0.4c0.7,0,1,0.4,1,1.3
				c0,0.5-0.2,0.8-0.6,1c-0.1,0-4.5,0-5.3,0c-3.2,0-4.8,0.6-4.8,1.7v1.1c0,0.7,0.6,1.1,1.8,1.3c0.2,0,0.6,0.1,1,0.1s1,0,1.6,0h3.9
				c1.9,0,3.4,0.2,4.4,0.7c1.7,0.7,2.6,1.8,2.6,3.2C116.3,636.3,116.3,638,116.3,638z"/>
			<path class="st3" d="M135.6,640.9c0,0.5-0.2,0.8-0.6,0.9c-0.1,0.1-0.5,0.1-1.2,0.1s-1-0.3-1-1v-7.3c0-0.8-0.5-1.3-1.4-1.5
				c-0.6-0.1-1.4-0.2-2.3-0.2h-8.2v9c0,0.7-0.3,1-1,1s-1.1,0-1.2-0.1c-0.4-0.1-0.6-0.4-0.6-0.9v-13.8c0-0.5,0.2-0.8,0.6-0.9
				c0.1-0.1,0.5-0.1,1.2-0.1s1,0.3,1,1v2.5h7.5c2.2,0,3.8,0.2,4.7,0.5c1.7,0.6,2.5,1.7,2.5,3.4V640.9z"/>
			<path class="st3" d="M154.4,638c0,1.4-0.7,2.5-2.1,3.1c-1,0.5-2.4,0.7-4,0.7h-4.6c-1.5,0-2.9-0.3-4.2-0.8
				c-1.5-0.7-2.3-1.7-2.3-3.1v-4.6c0-1.4,0.8-2.5,2.3-3.2c1.1-0.6,2.5-0.8,4.2-0.8h4.6c4.1,0,6.2,1.3,6.2,4L154.4,638L154.4,638z
				 M151.6,638v-4.8c0-1-1.1-1.5-3.4-1.5h-4.5c-0.8,0-1.6,0.1-2.3,0.3c-0.9,0.3-1.4,0.8-1.4,1.4v4.6c0,0.6,0.5,1,1.5,1.3
				c0.6,0.2,1.4,0.3,2.3,0.3h4.5c0.7,0,1.4-0.1,2.1-0.3C151.2,639,151.6,638.6,151.6,638z"/>
			<path class="st3" d="M173.7,637.9c0,2.6-2,3.9-6,3.9H159v2.5c0,0.5-0.2,0.8-0.6,0.9c-0.1,0.1-0.5,0.1-1.2,0.1s-1-0.3-1-1v-11.2
				c0-1.5,0.7-2.6,2.2-3.1c0.8-0.4,2.2-0.6,4.2-0.6h4.4c4.5,0,6.7,1.2,6.7,3.7L173.7,637.9L173.7,637.9z M170.9,638v-4.8
				c0-0.7-0.5-1.1-1.5-1.3c-0.4-0.1-1.2-0.1-2.3-0.1h-4.3c-2.5,0-3.7,0.5-3.7,1.5v6.3h8.7C169.8,639.5,170.9,639,170.9,638z"/>
			<path class="st3" d="M193,637.9c0,2.6-2,3.9-6,3.9h-8.7v2.5c0,0.5-0.2,0.8-0.6,0.9c-0.1,0.1-0.5,0.1-1.2,0.1s-1-0.3-1-1v-11.2
				c0-1.5,0.7-2.6,2.2-3.1c0.8-0.4,2.2-0.6,4.2-0.6h4.4c4.5,0,6.7,1.2,6.7,3.7L193,637.9L193,637.9z M190.2,638v-4.8
				c0-0.7-0.5-1.1-1.5-1.3c-0.4-0.1-1.2-0.1-2.3-0.1H182c-2.5,0-3.7,0.5-3.7,1.5v6.3h8.7C189.1,639.5,190.2,639,190.2,638z"/>
			<g>
				<path class="st3" d="M212,635.9c0,0.8-0.3,1.1-0.8,1.1h-13.9v0.1c0,1.2,0.7,1.9,2.1,2.3c0.3,0.1,0.8,0.1,1.3,0.2
					c0.6,0,5.2,0,6.1,0c0.7,0,1,0.4,1,1.3c0,0.7-0.3,1-1,1c-0.9,0-5.5,0.1-6.1,0.1s-1,0-1.4-0.1c-1.5-0.2-2.7-0.5-3.4-1.1
					c-1-0.8-1.5-1.7-1.5-2.8v-4.6c0-1.4,0.8-2.5,2.4-3.2c1.1-0.5,2.5-0.8,4.3-0.8h5.2c1.5,0,2.7,0.2,3.6,0.7c1.3,0.6,2,1.5,2,2.7
					L212,635.9L212,635.9z M209.2,634.6v-1.5c0-0.9-1.9-1.4-5.7-1.4c-2.2,0-3.7,0.1-4.6,0.2c-1.2,0.2-1.8,0.6-1.8,1.3v1.4H209.2z"/>
				<g>
					<path class="st3" d="M229.3,640.5c0,0.8-0.3,1.1-1,1.1h-13.6c-0.4,0-0.8-0.1-1.2-0.4c-0.4-0.3-0.6-0.7-0.6-1.1
						c0-0.4,0.2-0.8,0.7-1.1l13.3-9.1c0.3-0.2,0.6-0.3,1-0.3c0.3,0,0.6,0.1,0.8,0.4c0.2,0.2,0.3,0.5,0.3,0.9c0,0.3-0.1,0.6-0.4,0.7
						l-11.1,7.7h10.8C229,639.4,229.3,639.7,229.3,640.5z"/>
					<path class="st3" d="M229.2,630.6c0,0.6-0.5,1.1-1.1,1.1h-14c-0.6,0-1.1-0.5-1.1-1.1l0,0c0-0.6,0.5-1.1,1.1-1.1h14
						C228.7,629.5,229.2,630,229.2,630.6L229.2,630.6z"/>
				</g>
			</g>
		</g>
		<g>
			<path class="st3" d="M325.2,638.3c0,2.4-1.8,3.6-5.5,3.6h-9.4c-0.7,0-1-0.3-1-1c0-0.9,0.3-1.3,1-1.3h9.4c1.7,0,2.6-0.4,2.6-1.3
				v-0.5c0-0.7-0.8-1.1-2.4-1.1h-4.5c-4.2,0-6.2-1.1-6.2-3.4v-0.7c0-1.5,1-2.5,3.1-2.9c0.4-0.1,1-0.2,1.9-0.2c0.8,0,5.4-0.1,6.7-0.1
				c0.7,0,1,0.4,1,1.3c0,0.7-0.3,1-1,1h-5.6c-1,0-1.7,0-1.9,0c-0.9,0.1-1.4,0.4-1.4,0.8v0.7c0,0.7,1.2,1.1,3.5,1.1h4.6
				c3.4,0,5.2,1.1,5.2,3.4v0.6L325.2,638.3L325.2,638.3z"/>
			<path class="st3" d="M344.2,637.9c0,2.6-2,3.9-6,3.9h-8.7v2.5c0,0.5-0.2,0.8-0.6,0.9c-0.1,0.1-0.5,0.1-1.2,0.1s-1-0.3-1-1v-11.2
				c0-1.5,0.7-2.6,2.2-3.1c0.8-0.4,2.2-0.6,4.2-0.6h4.4c4.5,0,6.7,1.2,6.7,3.7V637.9z M341.4,638v-4.8c0-0.7-0.5-1.1-1.5-1.3
				c-0.4-0.1-1.2-0.1-2.3-0.1h-4.3c-2.5,0-3.7,0.5-3.7,1.5v6.3h8.7C340.3,639.5,341.4,639,341.4,638z"/>
			<path class="st3" d="M349.5,627.7c0,0.5-0.2,0.8-0.6,1.1c-0.3,0.2-0.7,0.3-1.2,0.3s-0.9-0.1-1.2-0.3c-0.4-0.3-0.6-0.6-0.6-1.1
				s0.2-0.8,0.6-1.1c0.3-0.2,0.7-0.3,1.2-0.3s0.9,0.1,1.2,0.3C349.3,626.9,349.5,627.3,349.5,627.7z M349.1,640.9c0,0.7-0.3,1-1,1
				s-1.1,0-1.2-0.1c-0.4-0.1-0.5-0.4-0.5-0.9v-10.5c0-0.7,0.3-1,1-1s1.1,0,1.2,0.1c0.4,0.1,0.6,0.4,0.6,0.9v10.5H349.1z"/>
			<path class="st3" d="M379.4,635.9c0,0.8-0.3,1.1-0.8,1.1h-13.8v0.1c0,1.2,0.7,1.9,2.1,2.3c0.3,0.1,0.8,0.1,1.4,0.2
				c0.6,0,5.1,0,6,0c0.7,0,1,0.4,1,1.3c0,0.7-0.3,1-1,1c-0.9,0-5.5,0.1-6.1,0.1s-1,0-1.3-0.1c-1.5-0.2-2.7-0.5-3.4-1.1
				c-1-0.8-1.5-1.7-1.5-2.8v-4.6c0-1.4,0.8-2.5,2.4-3.2c1.1-0.5,2.5-0.8,4.3-0.8h5.2c1.5,0,2.7,0.2,3.6,0.7c1.3,0.6,2,1.5,2,2.7v3.1
				H379.4z M376.7,634.6v-1.5c0-0.9-1.9-1.4-5.7-1.4c-2.2,0-3.8,0.1-4.6,0.2c-1.2,0.2-1.8,0.6-1.8,1.3v1.4H376.7z"/>
			<path class="st3" d="M308.4,635.9c0,0.8-0.3,1.1-0.8,1.1h-13.8v0.1c0,1.2,0.7,1.9,2.1,2.3c0.3,0.1,0.8,0.1,1.3,0.2
				c0.6,0,5.1,0,6.1,0c0.7,0,1,0.4,1,1.3c0,0.7-0.3,1-1,1c-0.9,0-5.5,0.1-6.1,0.1s-1,0-1.4-0.1c-1.5-0.2-2.7-0.5-3.4-1.1
				c-1-0.8-1.5-1.7-1.5-2.8v-4.6c0-1.4,0.8-2.5,2.4-3.2c1.1-0.5,2.5-0.8,4.3-0.8h5.2c1.5,0,2.7,0.2,3.6,0.7c1.3,0.6,2,1.5,2,2.7
				L308.4,635.9L308.4,635.9z M305.6,634.6v-1.5c0-0.9-1.9-1.4-5.7-1.4c-2.2,0-3.8,0.1-4.6,0.2c-1.2,0.2-1.8,0.6-1.8,1.3v1.4H305.6z
				"/>
			<g>
				<path class="st3" d="M396.8,640.5c0,0.8-0.3,1.1-1,1.1h-13.6c-0.4,0-0.8-0.1-1.2-0.4c-0.4-0.3-0.6-0.7-0.6-1.1
					c0-0.4,0.2-0.8,0.7-1.1l13.2-9.1c0.3-0.2,0.7-0.3,1-0.3s0.6,0.1,0.8,0.4c0.2,0.2,0.3,0.5,0.3,0.9c0,0.3-0.1,0.6-0.3,0.7
					l-11.1,7.7h10.8C396.5,639.4,396.8,639.7,396.8,640.5z"/>
				<path class="st3" d="M396.7,630.6c0,0.6-0.5,1.1-1.1,1.1h-14c-0.6,0-1.1-0.5-1.1-1.1l0,0c0-0.6,0.5-1.1,1.1-1.1h14
					C396.2,629.5,396.7,630,396.7,630.6L396.7,630.6z"/>
			</g>
			<g>
				<path class="st3" d="M289.9,630.7c0,0.7-0.4,1-1.2,1c-0.1,0-0.3,0-0.5,0s-0.4,0-0.5,0c-2.1,0-3.2,0.5-3.2,1.6v7.6
					c0,0.5-0.2,0.8-0.6,1c-0.2,0.1-0.6,0.1-1.2,0.1c-0.7,0-1-0.3-1-1v-7.6c0-1.6,0.9-2.7,2.6-3.3c1-0.4,2.6-0.6,4.6-0.6
					C289.6,629.4,289.9,629.8,289.9,630.7z"/>
				<path class="st3" d="M283.1,636.7c0.5,0,1,0.1,1.4,0.3v-6.7c0-0.7-0.3-1-1-1s-1.1,0-1.2,0.1c-0.4,0.1-0.6,0.4-0.6,0.9v6.4H283.1
					z"/>
			</g>
			<g>
				<path class="st3" d="M360.2,630.7c0,0.7-0.4,1-1.2,1c-0.1,0-0.3,0-0.5,0s-0.4,0-0.5,0c-2.1,0-3.2,0.5-3.2,1.6v7.6
					c0,0.5-0.2,0.8-0.6,1c-0.2,0.1-0.6,0.1-1.2,0.1c-0.7,0-1-0.3-1-1v-7.6c0-1.6,0.9-2.7,2.6-3.3c1-0.4,2.6-0.6,4.6-0.6
					C359.8,629.4,360.2,629.8,360.2,630.7z"/>
				<path class="st3" d="M353.4,636.7c0.5,0,1,0.1,1.4,0.3v-6.7c0-0.7-0.3-1-1-1c-0.6,0-1.1,0-1.2,0.1c-0.4,0.1-0.6,0.4-0.6,0.9v6.4
					H353.4z"/>
			</g>
		</g>
	</g>
</g>
</svg>
