<?xml version="1.0" encoding="utf-8"?>
<!-- Generator: Adobe Illustrator 20.1.0, SVG Export Plug-In . SVG Version: 6.00 Build 0)  -->
<svg version="1.1" id="Calque_1" xmlns="http://www.w3.org/2000/svg" xmlns:xlink="http://www.w3.org/1999/xlink" x="0px" y="0px"
	 viewBox="0 0 1988.3 1095.4" style="enable-background:new 0 0 1988.3 1095.4;" xml:space="preserve">
<style type="text/css">
	.st0{fill:url(#SVGID_1_);}
	.st1{fill:url(#SVGID_2_);}
	.st2{fill:#FFFFFF;}
	.st3{font-family:'OpenSans-Bold';}
	.st4{font-size:95px;}
	.st5{enable-background:new    ;}
	.st6{fill:#2FBCCB;}
	.st7{fill:#95C856;}
	.st8{font-family:'HelveticaNeue-CondensedBold';}
	.st9{font-size:37.8279px;}
	.st10{fill:none;stroke:#FFFFFF;stroke-width:8.7073;stroke-miterlimit:10;}
	.st11{fill:none;stroke:#FFFFFF;stroke-width:5.2999;stroke-miterlimit:10;}
</style>
<radialGradient id="SVGID_1_" cx="994.15" cy="129.2254" r="796.1859" gradientTransform="matrix(1 0 0 -1.036 0 681.5775)" gradientUnits="userSpaceOnUse">
	<stop  offset="0" style="stop-color:#3F3F3F"/>
	<stop  offset="0.3632" style="stop-color:#3A3A3A"/>
	<stop  offset="0.5659" style="stop-color:#353535"/>
	<stop  offset="1" style="stop-color:#323232"/>
</radialGradient>
<rect class="st0" width="1988.3" height="1095.4"/>
<text transform="matrix(1 0 0 1 675.8557 518.4397)" class="st2 st3 st4">Site en cours</text>
<g>
	<text transform="matrix(1 0 0 1 621.4558 632.5397)" class="st2 st3 st4">de construction</text>
</g>
<g>
	<g>
		<g>
			<path class="st2" d="M1163.1,1062.6c-3.7,0-6.2-2.4-6.2-6.1v-11.4c0-4.6,2.2-10.5,13-13.1c1.5-0.3,3-0.6,4.7-0.8
				c1.6-0.2,3.3-0.3,5.2-0.3h18c1.8,0,3.8-0.2,6.1-0.7c1.2-0.3,1.7-0.6,2-0.7v-2.9c-0.5-0.3-1.9-0.8-5.2-1.2
				c-1.3-0.1-4.1-0.3-10.3-0.3c-3.2,0-4.7-1.7-5.3-2.7c-0.6-1.1-0.9-2.4-0.9-4.3c0-3.7,2.4-6.1,6.1-6.1c4.1,0,7.5,0,10,0.1
				c2.6,0.1,4.4,0.2,5.6,0.4c3.7,0.6,6.9,1.9,9.4,3.8c4.3,3.3,5.2,7.1,5.2,9.7c0,4.7-0.6,8-2,10.2c-3.2,5.2-9.9,7.8-20.5,7.8h-18.5
				c-5.6,0-7.5,0.8-8,1.1v4.2h42.7c3.8,0,6.3,2.6,6.3,6.6s-2.5,6.6-6.3,6.6L1163.1,1062.6L1163.1,1062.6z"/>
			<path class="st2" d="M1190.3,1015.4c4.1,0,7.4,0,9.8,0.1s4.2,0.2,5.2,0.4c3.2,0.5,5.9,1.6,8,3.2c2.6,2,3.9,4.3,3.9,7.1
				c0,4-0.5,6.8-1.5,8.5c-2.5,4.1-8.4,6.2-17.7,6.2h-18.5c-7.5,0-11.3,1.4-11.3,4.2v7.7h46c2,0,3,1.1,3,3.3c0,2.2-1,3.3-3,3.3H1163
				c-1.9,0-2.9-1-2.9-2.9v-11.4c0-4.9,3.5-8.2,10.4-9.9c1.3-0.3,2.8-0.5,4.3-0.7s3.1-0.2,4.8-0.2h18c2,0,4.3-0.2,6.8-0.7
				c3.1-0.7,4.6-1.9,4.6-3.6v-3.8c0-2-2.7-3.3-8.2-3.9c-2-0.2-5.5-0.3-10.7-0.3c-1.2,0-2-0.4-2.5-1.1c-0.3-0.5-0.4-1.4-0.4-2.6
				C1187.5,1016.3,1188.4,1015.4,1190.3,1015.4 M1190.3,1008.8c-5.6,0-9.4,3.9-9.4,9.4c0,2.6,0.4,4.4,1.3,5.9l0.1,0.1
				c0.9,1.6,2.3,2.7,4,3.4h-6.5c-2,0-3.8,0.1-5.5,0.3c-1.8,0.2-3.5,0.5-5.1,0.8c-13.5,3.2-15.5,11.6-15.5,16.3v11.5
				c0,5.6,3.9,9.4,9.4,9.4h51.2c5.6,0,9.5-4.1,9.5-9.9s-3.9-9.9-9.5-9.9h-4.7c5.5-1.4,9.4-4.1,11.8-8.1c1.7-2.8,2.5-6.6,2.5-11.9
				c0-3.4-1.1-8.3-6.5-12.3c-3-2.2-6.6-3.7-10.8-4.4c-1.4-0.2-3.3-0.4-6-0.5C1197.9,1008.9,1194.5,1008.8,1190.3,1008.8
				L1190.3,1008.8z M1204.1,1026.8L1204.1,1026.8L1204.1,1026.8L1204.1,1026.8z"/>
		</g>
		<g>
			<path class="st2" d="M1125.7,1044c-10,0-19.6-1.9-28.6-5.7c-8.9-3.7-16.8-9-23.5-15.7c-1.7-1.7-3.3-3.4-4.8-5.3H771
				c-1.8,0-3.3-1.5-3.3-3.3v-68.7c0-1.8,1.5-3.3,3.3-3.3h287.4c3.8-8.3,8.9-15.7,15.4-22.1c6.6-6.5,14.5-11.8,23.4-15.5
				c8.9-3.8,18.6-5.7,28.6-5.7c10.2,0,19.9,1.9,28.7,5.7c8.8,3.7,16.7,9,23.4,15.5c6.8,6.6,12.1,14.3,15.9,23s5.8,18.3,5.8,28.3
				c0,9.9-1.9,19.3-5.8,28.2c-3.8,8.8-9.2,16.6-15.9,23.3c-6.8,6.7-14.6,11.9-23.4,15.7C1145.6,1042.1,1135.9,1044,1125.7,1044z"/>
			<path class="st2" d="M1125.7,902c9.8,0,19,1.8,27.4,5.4c8.5,3.6,15.9,8.5,22.4,14.8s11.6,13.6,15.2,21.9c3.7,8.3,5.5,17.3,5.5,27
				c0,9.5-1.8,18.4-5.5,26.9c-3.7,8.4-8.7,15.9-15.2,22.2c-6.5,6.4-14,11.4-22.4,15c-8.5,3.6-17.6,5.4-27.4,5.4
				c-9.6,0-18.7-1.8-27.3-5.4c-8.6-3.6-16.1-8.6-22.4-15c-2-2-3.8-4.1-5.6-6.3H771v-68.7h289.5c0.2-0.4,0.3-0.7,0.4-1.1
				c3.7-8.3,8.7-15.6,15.1-21.9c6.4-6.3,13.8-11.2,22.4-14.8C1107,903.8,1116.1,902,1125.7,902 M1125.7,895.5
				c-10.4,0-20.5,2-29.8,5.9s-17.6,9.4-24.5,16.2c-6.2,6.1-11.3,13.2-15.1,21.1H771c-3.6,0-6.6,2.9-6.6,6.6v68.7
				c0,3.6,2.9,6.6,6.6,6.6h296.4c1.3,1.5,2.7,3,4,4.4c6.9,7,15.2,12.5,24.5,16.4s19.4,5.9,29.8,5.9c10.7,0,20.8-2,30-5.9
				s17.4-9.4,24.5-16.3s12.7-15.1,16.6-24.3c4-9.2,6-19.2,6-29.5c0-10.5-2-20.5-6-29.7c-4-9.1-9.6-17.1-16.7-24
				c-7-6.8-15.2-12.3-24.4-16.2C1146.5,897.4,1136.4,895.5,1125.7,895.5L1125.7,895.5z"/>
		</g>
	</g>
	<g>
		<rect x="771.2" y="945.1" class="st6" width="307.5" height="68.7"/>
		<path class="st7" d="M1217.5,1026c0,4-0.5,6.8-1.5,8.5c-2.5,4.1-8.4,6.2-17.7,6.2h-18.5c-7.5,0-11.3,1.4-11.3,4.1v7.7h46
			c2,0,3,1.1,3,3.3c0,2.2-1,3.3-3,3.3h-51.2c-1.9,0-2.9-1-2.9-2.9v-11.4c0-4.9,3.5-8.2,10.4-9.9c1.3-0.3,2.8-0.5,4.3-0.7
			s3.1-0.2,4.8-0.2h18c2,0,4.3-0.2,6.8-0.7c3.1-0.7,4.6-1.9,4.6-3.6v-3.8c0-2-2.7-3.3-8.2-3.9c-2-0.2-5.5-0.3-10.7-0.3
			c-1.2,0-2-0.4-2.5-1.1c-0.3-0.5-0.4-1.4-0.4-2.6c0-1.9,0.9-2.8,2.9-2.8c4.1,0,7.4,0,9.9,0.1c2.4,0.1,4.2,0.2,5.2,0.4
			c3.2,0.5,5.9,1.6,8,3.2C1216.2,1020.9,1217.5,1023.3,1217.5,1026z"/>
		<g>
			<path class="st7" d="M1055.7,971c0-9.7,1.8-18.7,5.5-27s8.7-15.6,15.1-21.9c6.4-6.3,13.8-11.2,22.4-14.8s17.7-5.4,27.3-5.4
				c9.8,0,19,1.8,27.4,5.4c8.5,3.6,15.9,8.5,22.4,14.8s11.6,13.6,15.2,21.9c3.7,8.3,5.5,17.3,5.5,27c0,9.5-1.8,18.4-5.5,26.9
				c-3.7,8.4-8.7,15.9-15.2,22.2c-6.5,6.4-14,11.4-22.4,15c-8.5,3.6-17.6,5.4-27.4,5.4c-9.6,0-18.7-1.8-27.3-5.4
				c-8.6-3.6-16.1-8.6-22.4-15c-6.4-6.4-11.4-13.8-15.1-22.2C1057.5,989.5,1055.7,980.5,1055.7,971z M1083.3,971
				c0,5.8,1.1,11.2,3.3,16.4c2.2,5.1,5.2,9.6,9.1,13.4s8.4,6.8,13.6,9s10.8,3.2,16.6,3.2s11.4-1.1,16.6-3.2c5.2-2.2,9.8-5.2,13.6-9
				c3.9-3.8,6.9-8.3,9.1-13.4s3.3-10.6,3.3-16.4s-1.1-11.2-3.3-16.2c-2.2-5-5.2-9.5-9.1-13.3s-8.4-6.8-13.6-9s-10.8-3.2-16.6-3.2
				c-5.9,0-11.4,1.1-16.6,3.2c-5.2,2.2-9.8,5.1-13.6,9c-3.9,3.8-6.9,8.2-9.1,13.3C1084.4,959.9,1083.3,965.3,1083.3,971z"/>
		</g>
		<polygon class="st2" points="823.8,945.1 823.8,964 800.4,964 800.4,945.1 792.2,945.1 792.2,999.2 800.4,999.2 800.4,972.1 
			823.8,972.1 823.8,999.2 832,999.2 832,945.1 		"/>
		<g>
			<path class="st2" d="M857.1,960.3c2.8,0,5.3,0.5,7.7,1.5s4.4,2.4,6.2,4.1c1.8,1.8,3.2,3.8,4.2,6.1s1.5,4.9,1.5,7.6V999h-19.6
				c-2.7,0-5.2-0.5-7.6-1.5s-4.5-2.4-6.3-4.2c-1.8-1.8-3.2-3.9-4.2-6.2c-1-2.4-1.5-4.9-1.5-7.5c0-2.7,0.5-5.2,1.5-7.6
				c1-2.3,2.4-4.4,4.2-6.1c1.8-1.8,3.9-3.1,6.3-4.1C851.8,960.8,854.4,960.3,857.1,960.3z M868.9,991.4v-11.7c0-1.6-0.3-3.1-0.9-4.5
				s-1.5-2.6-2.5-3.7c-1.1-1.1-2.3-1.9-3.8-2.5c-1.4-0.6-3-0.9-4.6-0.9s-3.2,0.3-4.6,0.9c-1.5,0.6-2.7,1.4-3.8,2.5
				c-1.1,1.1-1.9,2.3-2.6,3.7c-0.6,1.4-0.9,2.9-0.9,4.5s0.3,3.1,0.9,4.6c0.6,1.4,1.5,2.7,2.6,3.8c1.1,1.1,2.4,1.9,3.8,2.5
				c1.5,0.6,3,0.9,4.6,0.9L868.9,991.4L868.9,991.4z"/>
			<path class="st2" d="M900.5,960.3c2.7,0,5.3,0.5,7.7,1.5c2.4,1,4.5,2.4,6.2,4.1c1.8,1.8,3.2,3.8,4.2,6.1s1.5,4.9,1.5,7.6v15.5
				c0,2.7-0.5,5.2-1.5,7.5s-2.4,4.4-4.2,6.2c-1.8,1.8-3.9,3.2-6.2,4.2c-2.4,1-4.9,1.5-7.7,1.5h-3.9v-7.7h3.9c2.6,0,5-0.7,7-2.2
				s3.4-3.4,4.3-5.7h-11.2c-2.7,0-5.2-0.5-7.6-1.5s-4.5-2.4-6.3-4.2c-1.8-1.8-3.2-3.9-4.3-6.2c-1-2.4-1.5-4.9-1.5-7.5
				c0-2.7,0.5-5.2,1.5-7.6c1-2.3,2.4-4.4,4.3-6.1c1.8-1.8,3.9-3.1,6.3-4.1C895.2,960.8,897.8,960.3,900.5,960.3z M888.5,979.6
				c0,1.6,0.3,3.1,0.9,4.6c0.6,1.4,1.5,2.7,2.5,3.8c1.1,1.1,2.4,1.9,3.8,2.5c1.5,0.6,3,0.9,4.7,0.9h11.9v-11.7
				c0-1.6-0.3-3.1-0.9-4.5s-1.5-2.6-2.5-3.7c-1.1-1.1-2.4-1.9-3.8-2.5c-1.5-0.6-3-0.9-4.6-0.9s-3.2,0.3-4.7,0.9
				c-1.5,0.6-2.7,1.4-3.8,2.5s-1.9,2.3-2.5,3.7C888.8,976.5,888.5,978,888.5,979.6z"/>
			<path class="st2" d="M964.2,960.3v19.3c0,2.6-0.5,5.2-1.5,7.5c-1,2.4-2.4,4.4-4.3,6.2c-1.8,1.8-3.9,3.2-6.3,4.2s-4.9,1.5-7.7,1.5
				c-2.7,0-5.2-0.5-7.6-1.5s-4.5-2.4-6.3-4.2c-1.8-1.8-3.2-3.9-4.2-6.2c-1-2.4-1.5-4.9-1.5-7.5v-19.3h7.8v19.3
				c0,1.6,0.3,3.1,0.9,4.6c0.6,1.4,1.5,2.7,2.5,3.8c1.1,1.1,2.3,1.9,3.8,2.5c1.4,0.6,3,0.9,4.6,0.9s3.2-0.3,4.7-0.9s2.7-1.4,3.8-2.5
				s1.9-2.3,2.5-3.8c0.6-1.4,0.9-3,0.9-4.6v-19.3H964.2z"/>
			<path class="st2" d="M999.1,985.4l5.5,5.4l-2.7,2.7c-1.9,1.8-4,3.3-6.4,4.2c-2.4,1-4.9,1.5-7.5,1.5s-5.1-0.5-7.5-1.5
				s-4.5-2.4-6.4-4.2c-1.9-1.9-3.4-4-4.3-6.4s-1.4-4.8-1.4-7.3s0.5-4.9,1.4-7.3c0.9-2.4,2.4-4.5,4.3-6.4s4.1-3.3,6.5-4.3
				s4.9-1.4,7.4-1.4s5,0.5,7.4,1.4s4.6,2.4,6.5,4.3l2.7,2.7l-21.8,21.5c2.2,1.1,4.6,1.5,7.1,1.1s4.7-1.5,6.5-3.3L999.1,985.4z
				 M979.5,971.5c-2.3,2.3-3.5,5.1-3.5,8.3c0,1.8,0.4,3.5,1.2,5.1c0.7-0.7,1.8-1.7,3.2-3.2c1.4-1.4,3-2.9,4.6-4.5s3.2-3.1,4.7-4.5
				s2.6-2.6,3.5-3.4c-2.2-1.1-4.6-1.5-7.1-1.1S981.4,969.7,979.5,971.5z"/>
			<path class="st2" d="M1009.6,972.1c1-2.3,2.4-4.4,4.2-6.1c1.8-1.8,3.9-3.1,6.3-4.1s4.9-1.5,7.6-1.5s5.3,0.5,7.7,1.5
				s4.5,2.4,6.3,4.1c1.8,1.8,3.2,3.8,4.3,6.1c1,2.3,1.5,4.9,1.5,7.6v19.4h-7.8v-19.4c0-1.6-0.3-3.1-0.9-4.5s-1.5-2.6-2.5-3.7
				c-1.1-1.1-2.4-1.9-3.8-2.5c-1.5-0.6-3-0.9-4.7-0.9c-1.6,0-3.2,0.3-4.6,0.9c-1.4,0.6-2.7,1.4-3.8,2.5s-1.9,2.3-2.5,3.7
				s-0.9,2.9-0.9,4.5v19.4h-7.8v-19.4C1008.1,977,1008.6,974.5,1009.6,972.1z"/>
		</g>
	</g>
	<g>
		<text transform="matrix(1.0155 0 0 1 771.731 934.8265)" class="st2 st8 st9">Zone Commerciale</text>
	</g>
	<g>
		<path class="st2" d="M938.1,1039.4c0,0.6-0.4,0.9-1.2,0.9h-0.6h-0.2c-0.1,0-0.2,0-0.2,0c-0.2,0-0.8-0.3-1.8-0.9
			c-1.2,0.6-2.9,0.9-5,0.9h-5.6c-1.7,0-3.1-0.3-4.3-0.8c-1.7-0.7-2.5-1.7-2.5-3v-1c0-1,0.4-1.8,1.3-2.4c0.5-0.3,1.4-0.7,2.7-1.1
			c-1.4-1.2-2.2-2-2.3-2.5c0-0.1,0-0.3,0-0.5c0-0.3,0-0.6,0-0.9s0-0.5,0.1-0.8c0-0.2,0.1-0.4,0.4-0.8c0.9-1.3,2.6-2,5.2-2h3.1
			c1.4,0,2.6,0.2,3.6,0.7c1.3,0.6,1.9,1.6,1.9,2.9c0,0.3,0,0.6,0,0.8c0,0.2,0,0.4,0,0.5c-0.1,0.6-0.9,1.3-2.3,2
			c-0.5,0.3-1,0.5-1.5,0.7s-1,0.4-1.6,0.6l6.3,3.5v-3.3c0-0.5,0.2-0.8,0.6-0.9c0.2,0,0.6-0.1,1.3-0.1s1,0.3,1,1v3.2
			c0-0.1,0-0.2,0-0.3s0-0.2,0-0.4v0.1v0.1v0.2v0.2c0,0.1,0,0.2,0,0.2v-0.2c-0.1,0.7-0.2,1.2-0.4,1.5l1.3,0.8
			C937.9,1038.7,938.1,1039,938.1,1039.4z M931.3,1037.9l-7.6-4.2c-2.7,0.8-4.1,1.4-4.1,1.8v1c0,0.5,0.6,0.9,1.7,1.2
			c0.7,0.2,1.5,0.3,2.4,0.3h5.5C930.2,1038,930.9,1038,931.3,1037.9z M929.8,1028.9v-0.8c0-0.8-0.9-1.2-2.6-1.2h-3.1
			c-1.8,0-2.7,0.4-2.7,1.2v0.8c0,0.3,0.2,0.6,0.5,0.8l2.3,1.4l3.6-1C929.1,1029.7,929.8,1029.3,929.8,1028.9z"/>
		<g>
			<path class="st2" d="M789.2,1036.5c0,0.9-0.1,1.5-0.4,2c-0.7,1.3-2.9,1.9-6.6,1.9H772c-0.7,0-1-0.3-1-1c0-0.5,0.1-0.8,0.2-1
				c0.2-0.2,0.4-0.4,0.9-0.4h10.1c2.7,0,4.1-0.5,4.1-1.5v-1.4c0-1-1.3-1.5-4-1.6l-4.9-0.2c-0.2,0-0.6,0-1,0s-0.9-0.1-1.5-0.1
				c-1-0.1-2-0.5-2.7-1c-0.8-0.6-1.2-1.4-1.2-2.5v-1.2c0-1.8,1-3.1,3.1-3.7c1-0.2,6.8-0.4,9.5-0.4c0.7,0,1,0.4,1,1.3
				c0,0.5-0.2,0.8-0.6,1c-0.1,0-4.5,0-5.3,0c-3.2,0-4.8,0.6-4.8,1.7v1.1c0,0.7,0.6,1.1,1.8,1.3c0.2,0,0.6,0.1,1,0.1s1,0,1.6,0h3.9
				c1.9,0,3.4,0.2,4.4,0.7c1.7,0.7,2.6,1.8,2.6,3.2C789.2,1034.8,789.2,1036.5,789.2,1036.5z"/>
			<path class="st2" d="M808.5,1039.4c0,0.5-0.2,0.8-0.6,0.9c-0.1,0.1-0.5,0.1-1.2,0.1s-1-0.3-1-1v-7.3c0-0.8-0.5-1.3-1.4-1.5
				c-0.6-0.1-1.4-0.2-2.3-0.2h-8.2v9c0,0.7-0.3,1-1,1s-1.1,0-1.2-0.1c-0.4-0.1-0.6-0.4-0.6-0.9v-13.8c0-0.5,0.2-0.8,0.6-0.9
				c0.1-0.1,0.5-0.1,1.2-0.1s1,0.3,1,1v2.5h7.5c2.2,0,3.8,0.2,4.7,0.5c1.7,0.6,2.5,1.7,2.5,3.4V1039.4z"/>
			<path class="st2" d="M827.3,1036.5c0,1.4-0.7,2.5-2.1,3.1c-1,0.5-2.4,0.7-4,0.7h-4.6c-1.5,0-2.9-0.3-4.2-0.8
				c-1.5-0.7-2.3-1.7-2.3-3.1v-4.6c0-1.4,0.8-2.5,2.3-3.2c1.1-0.6,2.5-0.8,4.2-0.8h4.6c4.1,0,6.2,1.3,6.2,4L827.3,1036.5
				L827.3,1036.5z M824.5,1036.5v-4.8c0-1-1.1-1.5-3.4-1.5h-4.5c-0.8,0-1.6,0.1-2.3,0.3c-0.9,0.3-1.4,0.8-1.4,1.4v4.6
				c0,0.6,0.5,1,1.5,1.3c0.6,0.2,1.4,0.3,2.3,0.3h4.5c0.7,0,1.4-0.1,2.1-0.3C824.1,1037.5,824.5,1037.1,824.5,1036.5z"/>
			<path class="st2" d="M846.6,1036.4c0,2.6-2,3.9-6,3.9h-8.7v2.5c0,0.5-0.2,0.8-0.6,0.9c-0.1,0.1-0.5,0.1-1.2,0.1s-1-0.3-1-1v-11.2
				c0-1.5,0.7-2.6,2.2-3.1c0.8-0.4,2.2-0.6,4.2-0.6h4.4c4.5,0,6.7,1.2,6.7,3.7V1036.4L846.6,1036.4z M843.8,1036.5v-4.8
				c0-0.7-0.5-1.1-1.5-1.3c-0.4-0.1-1.2-0.1-2.3-0.1h-4.3c-2.5,0-3.7,0.5-3.7,1.5v6.3h8.7C842.7,1038,843.8,1037.5,843.8,1036.5z"/>
			<path class="st2" d="M865.9,1036.4c0,2.6-2,3.9-6,3.9h-8.7v2.5c0,0.5-0.2,0.8-0.6,0.9c-0.1,0.1-0.5,0.1-1.2,0.1s-1-0.3-1-1v-11.2
				c0-1.5,0.7-2.6,2.2-3.1c0.8-0.4,2.2-0.6,4.2-0.6h4.4c4.5,0,6.7,1.2,6.7,3.7V1036.4L865.9,1036.4z M863.1,1036.5v-4.8
				c0-0.7-0.5-1.1-1.5-1.3c-0.4-0.1-1.2-0.1-2.3-0.1h-4.4c-2.5,0-3.7,0.5-3.7,1.5v6.3h8.7C862,1038,863.1,1037.5,863.1,1036.5z"/>
			<g>
				<path class="st2" d="M884.9,1034.4c0,0.8-0.3,1.1-0.8,1.1h-13.9v0.1c0,1.2,0.7,1.9,2.1,2.3c0.3,0.1,0.8,0.1,1.3,0.2
					c0.6,0,5.2,0,6.1,0c0.7,0,1,0.4,1,1.3c0,0.7-0.3,1-1,1c-0.9,0-5.5,0.1-6.1,0.1s-1,0-1.4-0.1c-1.5-0.2-2.7-0.5-3.4-1.1
					c-1-0.8-1.5-1.7-1.5-2.8v-4.6c0-1.4,0.8-2.5,2.4-3.2c1.1-0.5,2.5-0.8,4.3-0.8h5.2c1.5,0,2.7,0.2,3.6,0.7c1.3,0.6,2,1.5,2,2.7
					L884.9,1034.4L884.9,1034.4z M882.1,1033.1v-1.5c0-0.9-1.9-1.4-5.7-1.4c-2.2,0-3.7,0.1-4.6,0.2c-1.2,0.2-1.8,0.6-1.8,1.3v1.4
					H882.1z"/>
				<g>
					<path class="st2" d="M902.2,1039c0,0.8-0.3,1.1-1,1.1h-13.6c-0.4,0-0.8-0.1-1.2-0.4c-0.4-0.3-0.6-0.7-0.6-1.1s0.2-0.8,0.7-1.1
						l13.3-9.1c0.3-0.2,0.6-0.3,1-0.3c0.3,0,0.6,0.1,0.8,0.4c0.2,0.2,0.3,0.5,0.3,0.9c0,0.3-0.1,0.6-0.4,0.7l-11.1,7.7h10.8
						C901.9,1037.9,902.2,1038.2,902.2,1039z"/>
					<path class="st2" d="M902.1,1029.1c0,0.6-0.5,1.1-1.1,1.1h-14c-0.6,0-1.1-0.5-1.1-1.1l0,0c0-0.6,0.5-1.1,1.1-1.1h14
						C901.6,1028,902.1,1028.5,902.1,1029.1L902.1,1029.1z"/>
				</g>
			</g>
		</g>
		<g>
			<path class="st2" d="M998.1,1036.8c0,2.4-1.8,3.6-5.5,3.6h-9.4c-0.7,0-1-0.3-1-1c0-0.9,0.3-1.3,1-1.3h9.4c1.7,0,2.6-0.4,2.6-1.3
				v-0.5c0-0.7-0.8-1.1-2.4-1.1h-4.5c-4.2,0-6.2-1.1-6.2-3.4v-0.7c0-1.5,1-2.5,3.1-2.9c0.4-0.1,1-0.2,1.9-0.2c0.8,0,5.4-0.1,6.7-0.1
				c0.7,0,1,0.4,1,1.3c0,0.7-0.3,1-1,1h-5.6c-1,0-1.7,0-1.9,0c-0.9,0.1-1.4,0.4-1.4,0.8v0.7c0,0.7,1.2,1.1,3.5,1.1h4.6
				c3.4,0,5.2,1.1,5.2,3.4L998.1,1036.8L998.1,1036.8z"/>
			<path class="st2" d="M1017.1,1036.4c0,2.6-2,3.9-6,3.9h-8.7v2.5c0,0.5-0.2,0.8-0.6,0.9c-0.1,0.1-0.5,0.1-1.2,0.1s-1-0.3-1-1
				v-11.2c0-1.5,0.7-2.6,2.2-3.1c0.8-0.4,2.2-0.6,4.2-0.6h4.4c4.5,0,6.7,1.2,6.7,3.7V1036.4z M1014.3,1036.5v-4.8
				c0-0.7-0.5-1.1-1.5-1.3c-0.4-0.1-1.2-0.1-2.3-0.1h-4.3c-2.5,0-3.7,0.5-3.7,1.5v6.3h8.7C1013.2,1038,1014.3,1037.5,1014.3,1036.5z
				"/>
			<path class="st2" d="M1022.4,1026.2c0,0.5-0.2,0.8-0.6,1.1c-0.3,0.2-0.7,0.3-1.2,0.3s-0.9-0.1-1.2-0.3c-0.4-0.3-0.6-0.6-0.6-1.1
				s0.2-0.8,0.6-1.1c0.3-0.2,0.7-0.3,1.2-0.3s0.9,0.1,1.2,0.3C1022.2,1025.4,1022.4,1025.8,1022.4,1026.2z M1022,1039.4
				c0,0.7-0.3,1-1,1s-1.1,0-1.2-0.1c-0.4-0.1-0.5-0.4-0.5-0.9v-10.5c0-0.7,0.3-1,1-1s1.1,0,1.2,0.1c0.4,0.1,0.6,0.4,0.6,0.9
				L1022,1039.4L1022,1039.4z"/>
			<path class="st2" d="M1052.3,1034.4c0,0.8-0.3,1.1-0.8,1.1h-13.8v0.1c0,1.2,0.7,1.9,2.1,2.3c0.3,0.1,0.8,0.1,1.4,0.2
				c0.6,0,5.1,0,6,0c0.7,0,1,0.4,1,1.3c0,0.7-0.3,1-1,1c-0.9,0-5.5,0.1-6.1,0.1s-1,0-1.3-0.1c-1.5-0.2-2.7-0.5-3.4-1.1
				c-1-0.8-1.5-1.7-1.5-2.8v-4.6c0-1.4,0.8-2.5,2.4-3.2c1.1-0.5,2.5-0.8,4.3-0.8h5.2c1.5,0,2.7,0.2,3.6,0.7c1.3,0.6,2,1.5,2,2.7
				L1052.3,1034.4L1052.3,1034.4z M1049.6,1033.1v-1.5c0-0.9-1.9-1.4-5.7-1.4c-2.2,0-3.8,0.1-4.6,0.2c-1.2,0.2-1.8,0.6-1.8,1.3v1.4
				H1049.6z"/>
			<path class="st2" d="M981.3,1034.4c0,0.8-0.3,1.1-0.8,1.1h-13.8v0.1c0,1.2,0.7,1.9,2.1,2.3c0.3,0.1,0.8,0.1,1.3,0.2
				c0.6,0,5.1,0,6.1,0c0.7,0,1,0.4,1,1.3c0,0.7-0.3,1-1,1c-0.9,0-5.5,0.1-6.1,0.1s-1,0-1.4-0.1c-1.5-0.2-2.7-0.5-3.4-1.1
				c-1-0.8-1.5-1.7-1.5-2.8v-4.6c0-1.4,0.8-2.5,2.4-3.2c1.1-0.5,2.5-0.8,4.3-0.8h5.2c1.5,0,2.7,0.2,3.6,0.7c1.3,0.6,2,1.5,2,2.7
				L981.3,1034.4L981.3,1034.4z M978.5,1033.1v-1.5c0-0.9-1.9-1.4-5.7-1.4c-2.2,0-3.8,0.1-4.6,0.2c-1.2,0.2-1.8,0.6-1.8,1.3v1.4
				H978.5z"/>
			<g>
				<path class="st2" d="M1069.7,1039c0,0.8-0.3,1.1-1,1.1h-13.6c-0.4,0-0.8-0.1-1.2-0.4c-0.4-0.3-0.6-0.7-0.6-1.1s0.2-0.8,0.7-1.1
					l13.2-9.1c0.3-0.2,0.7-0.3,1-0.3s0.6,0.1,0.8,0.4c0.2,0.2,0.3,0.5,0.3,0.9c0,0.3-0.1,0.6-0.3,0.7l-11.1,7.7h10.8
					C1069.4,1037.9,1069.7,1038.2,1069.7,1039z"/>
				<path class="st2" d="M1069.6,1029.1c0,0.6-0.5,1.1-1.1,1.1h-14c-0.6,0-1.1-0.5-1.1-1.1l0,0c0-0.6,0.5-1.1,1.1-1.1h14
					C1069.1,1028,1069.6,1028.5,1069.6,1029.1L1069.6,1029.1z"/>
			</g>
			<g>
				<path class="st2" d="M962.8,1029.2c0,0.7-0.4,1-1.2,1c-0.1,0-0.3,0-0.5,0s-0.4,0-0.5,0c-2.1,0-3.2,0.5-3.2,1.6v7.6
					c0,0.5-0.2,0.8-0.6,1c-0.2,0.1-0.6,0.1-1.2,0.1c-0.7,0-1-0.3-1-1v-7.6c0-1.6,0.9-2.7,2.6-3.3c1-0.4,2.6-0.6,4.6-0.6
					C962.5,1027.9,962.8,1028.3,962.8,1029.2z"/>
				<path class="st2" d="M956,1035.2c0.5,0,1,0.1,1.4,0.3v-6.7c0-0.7-0.3-1-1-1s-1.1,0-1.2,0.1c-0.4,0.1-0.6,0.4-0.6,0.9v6.4
					L956,1035.2L956,1035.2z"/>
			</g>
			<g>
				<path class="st2" d="M1033.1,1029.2c0,0.7-0.4,1-1.2,1c-0.1,0-0.3,0-0.5,0s-0.4,0-0.5,0c-2.1,0-3.2,0.5-3.2,1.6v7.6
					c0,0.5-0.2,0.8-0.6,1c-0.2,0.1-0.6,0.1-1.2,0.1c-0.7,0-1-0.3-1-1v-7.6c0-1.6,0.9-2.7,2.6-3.3c1-0.4,2.6-0.6,4.6-0.6
					C1032.7,1027.9,1033.1,1028.3,1033.1,1029.2z"/>
				<path class="st2" d="M1026.3,1035.2c0.5,0,1,0.1,1.4,0.3v-6.7c0-0.7-0.3-1-1-1c-0.6,0-1.1,0-1.2,0.1c-0.4,0.1-0.6,0.4-0.6,0.9
					v6.4L1026.3,1035.2L1026.3,1035.2z"/>
			</g>
		</g>
	</g>
</g>
<g>
	<path class="st2" d="M1111.9,121.8H876.4c-2.8,0-5-2.2-5-5V99.7h245.5v17.1C1116.9,119.6,1114.7,121.8,1111.9,121.8z"/>
	<path class="st2" d="M1087.2,144H899.9c-2.8,0-5-2.2-5-5v-17.1h197.3V139C1092.2,141.7,1089.9,144,1087.2,144z"/>
	<path class="st2" d="M1111.9,367.3H876.4c-2.8,0-5,2.2-5,5v17.1h245.5v-17.1C1116.9,369.5,1114.7,367.3,1111.9,367.3z"/>
	<path class="st2" d="M1087.2,345.1H899.9c-2.8,0-5,2.2-5,5v17.1h197.3v-17.1C1092.2,347.4,1089.9,345.1,1087.2,345.1z"/>
	<path class="st10" d="M1070.6,133.5c0,0,5.4,57.7-38.1,92.5l0,0c0,0-23,18.2,0,37l0,0c0,0,35.5,13.1,38.2,91.9"/>
	<path class="st10" d="M918,133.5c0,0-5.4,57.7,38.1,92.5l0,0c0,0,23,18.2,0,37l0,0c0,0-35.5,13.1-38.2,91.9"/>
	<path class="st2" d="M1018.4,298.8c0,0-35-43-12.8-64.5c22.1-21.5,23.3-31.9,23.3-31.9h-34.1h-1.5h-33.5c0,0,1.1,10.2,23.3,31.7
		c22.1,21.5-12.8,65-12.8,65s-20.1,17.3-20.1,51.3h43.2h1.5h43.8C1038.5,316.3,1018.4,298.8,1018.4,298.8z"/>
</g>
</svg>
